<svg width="25" height="24" viewBox="0 0 25 24" fill="none" xmlns="http://www.w3.org/2000/svg">
<path fill-rule="evenodd" clip-rule="evenodd" d="M12.5 0.428711C10.5124 0.428711 8.60623 1.21827 7.20081 2.62368C5.79539 4.02911 5.00582 5.93527 5.00582 7.92285C5.00582 9.33755 4.7562 10.4149 4.4094 11.2304C4.31225 11.4589 4.11583 11.6562 3.73843 11.8977C3.59102 11.992 3.44013 12.0787 3.26868 12.1772L3.26865 12.1772L3.10831 12.2696C2.88016 12.4017 2.62341 12.5551 2.37816 12.7366L2.88816 13.4256L2.37816 12.7366C1.49141 13.3931 1.16548 14.4047 1.20952 15.3168C1.25238 16.2043 1.65021 17.1294 2.39268 17.6876C2.40281 17.6957 2.41421 17.7044 2.42692 17.7139C2.45716 17.7365 2.49487 17.7629 2.54111 17.7925C2.63354 17.852 2.75999 17.9245 2.92869 18.0053C3.26563 18.1666 3.77354 18.3619 4.52061 18.5508C6.01178 18.9276 8.48181 19.2859 12.5 19.2859C16.5181 19.2859 18.988 18.9276 20.4793 18.5508C21.2264 18.3619 21.7343 18.1666 22.0712 18.0053C22.2399 17.9245 22.3664 17.852 22.4588 17.7925C22.5051 17.7629 22.5428 17.7365 22.573 17.7139C22.5856 17.7044 22.5971 17.6957 22.6072 17.6876C23.3497 17.1294 23.7476 16.2043 23.7904 15.3168C23.8345 14.4047 23.5084 13.3931 22.6218 12.7366C22.3765 12.5551 22.1197 12.4017 21.8915 12.2696L21.7312 12.1773C21.5598 12.0787 21.409 11.992 21.2615 11.8977C20.884 11.6562 20.6876 11.4589 20.5904 11.2304C20.5184 11.061 20.4508 10.8807 20.3888 10.6889C20.146 9.74431 19.994 8.85422 19.994 7.92285C19.994 5.93527 19.2046 4.02911 17.799 2.62368C16.3937 1.21827 14.4875 0.428711 12.5 0.428711Z" fill="#01ADFB"/>
<path fill-rule="evenodd" clip-rule="evenodd" d="M9.57862 20.802C9.80631 20.5334 10.1751 20.4314 10.5085 20.5447C10.9426 20.6924 11.5841 20.8053 12.5 20.8053C13.416 20.8053 14.0574 20.6924 14.4916 20.5447C14.8249 20.4314 15.1937 20.5334 15.4214 20.802C15.6491 21.0706 15.6894 21.451 15.523 21.7613C14.9462 22.8367 13.8095 23.5712 12.5 23.5712C11.1905 23.5712 10.0538 22.8367 9.47706 21.7613C9.31064 21.451 9.35092 21.0706 9.57862 20.802Z" fill="#006FB0"/>
</svg>
