<svg width="63" height="50" fill="none" xmlns="http://www.w3.org/2000/svg">
    <path d="M60.979 0H13.151v37.338H60.98V0Z" fill="#E6E6E6"/>
    <path opacity=".08" d="M18.12 23.938s3.345 2.555 2.254 4.23c-1.091 1.675-1.746.02-1.746 2.83s-.218 6.337-.218 6.337h-4.077l.938-13.321 2.848-.076Z" fill="#000"/>
    <path opacity=".45" d="M16.15 49.254c8.918 0 16.148-1.277 16.148-2.851 0-1.575-7.23-2.851-16.149-2.851S0 44.828 0 46.402c0 1.575 7.23 2.852 16.15 2.852Z" fill="#E6E6E6"/>
    <path d="m10.724 20.265.542 1.61-1.286.809-.462-2.79 1.206.37Z" fill="#F4A28C"/>
    <path d="M9.075 18.34a1.005 1.005 0 0 1 .761-.589 1.022 1.022 0 0 1 .913.31c.548.58 1.207 1.5.46 2-1.14.767-2.182-.666-2.182-.666a1.803 1.803 0 0 1 .049-1.055Z" fill="#F4A28C"/>
    <path d="M9.91 19.324s-.293-.242-.426.104c-.134.346.384.51.539.335.155-.175-.114-.439-.114-.439Z" fill="#F4A28C"/>
    <path d="M8.885 22.699s-4.603 2.76-5.207 9.238a2.23 2.23 0 0 0 .406 1.518c.316.441.781.755 1.311.883l5.395 1.297L8.885 22.7Z" fill="#1256A6"/>
    <path opacity=".2" d="M8.885 22.699s-4.603 2.76-5.207 9.238a2.23 2.23 0 0 0 .406 1.518c.316.441.781.755 1.311.883l5.395 1.297L8.885 22.7Z" fill="#24285B"/>
    <path d="M19.698 25.21c-.716-1.767-2.619-3.79-7.075-5.418l-.308.977 4.963 5.867c1.045 1.227 3.025.058 2.42-1.427Z" fill="#1277F0"/>
    <path d="m10.816 30.565-7.07 3.219 2.124 4.58 7.071-3.219-2.125-4.58Z" fill="#FFD200"/>
    <path d="M10.076 18.909s.609 1.729-.452 1.614c-1.06-.114-.478-.847-1.003-1.614-.526-.768-.25-1.284.554-1.957.366-.307.613-.451.761-.614a.568.568 0 0 1 .954.134c.277.66.277 1.54-.814 2.436Z" fill="#24285B"/>
    <path d="M7.822 24.064c.22-.48.54-.908.94-1.255.401-.346.872-.603 1.382-.753 1.964-.586 5.705-1.814 6.809 0 1.512 2.496-.814 12.294-.814 12.294l-6.612.508s-3.638-6.497-1.705-10.794Z" fill="#145DB4"/>
    <path d="m16.14 34.35-.872 11.259h-1.374l-1.229-8.748-3.04-2.003 6.514-.508Z" fill="#24285B"/>
    <path d="M9.624 34.858 7.728 45.609H9.2l3.184-8.931-2.761-1.82Z" fill="#24285B"/>
    <path opacity=".08" d="M10.716 21.875s-3.092 9.867 5.84 10.522l-.417 1.946-6.612.507a16.873 16.873 0 0 1-2.233-8.713s.057-2.515 1.846-3.629a4.055 4.055 0 0 1 1.576-.633Z" fill="#000"/>
    <path d="m7.995 45.609-.916.668a.199.199 0 0 0 .12.359h1.527c.054 0 .105-.021.143-.059a.2.2 0 0 0 .06-.14v-.828h-.934ZM15.228 45.609l.873.668a.2.2 0 0 1-.126.359h-1.091a.586.586 0 0 1-.413-.17.575.575 0 0 1-.17-.407v-.45h.927Z" fill="#1277F0"/>
    <path d="m36.956 18.784-9.312 11.767" stroke="#A5A5A5" stroke-miterlimit="10"/>
    <path d="M13.232 23.764c.665 1.463 1.822 3.294 3.66 4.139a2.082 2.082 0 0 0 2.359-.37 2.028 2.028 0 0 0 .428-2.328 4.673 4.673 0 0 0-.516-.864c-.977-1.319-2.367-2.415-3.694-2.922a1.774 1.774 0 0 0-1.914.428 1.735 1.735 0 0 0-.323 1.917Z" fill="#1277F0"/>
    <path opacity=".2" d="M13.232 23.764c.665 1.463 1.822 3.294 3.66 4.139a2.082 2.082 0 0 0 2.359-.37 2.028 2.028 0 0 0 .428-2.328 4.673 4.673 0 0 0-.516-.864c-.977-1.319-2.367-2.415-3.694-2.922a1.774 1.774 0 0 0-1.914.428 1.735 1.735 0 0 0-.323 1.917Z" fill="#1277F0"/>
    <path opacity=".08" d="M61.095 22.393H55.01v-8.119h5.97" fill="#000"/>
    <path d="M12.559 19.994s-1.048-.68-1.351.07c-.303.75 1.106.708 1.106.708l.245-.778Z" fill="#F4A28C"/>
    <path d="m22.041 10.951 14.914 8.592 9.964-12.115" stroke="#A5A5A5" stroke-miterlimit="10"/>
    <path d="M59.894 20.524h-6.086v-8.119h9.191v5.428" fill="#FFD200"/>
    <path d="m38.266 20.006 13.128 7.974" stroke="#A5A5A5" stroke-miterlimit="10"/>
    <path opacity=".08" d="M44.993 15.308H33.427v10.429h11.566v-10.43Z" fill="#000"/>
    <path d="M21.53 12.5v6.281M36.598 30.547h-6.342" stroke="#A5A5A5" stroke-miterlimit="10"/>
    <path opacity=".34" d="M59.603 10.267h-2.4v4.323h2.4v-4.323Z" fill="#fff"/>
    <path d="M43.176 13.568H31.609v10.43h11.567v-10.43Z" fill="#145DB4"/>
    <path d="M25.596 6.71h-8.133v7.196h8.133V6.71Z" fill="#C9C9C9"/>
    <path opacity=".34" d="M59.895 20.525v-2.691H63l-3.105 2.691Z" fill="#fff"/>
    <path d="M56.706 23.473h-8.44v7.364h8.44v-7.364Z" fill="#C9C9C9"/>
    <path d="M55.123 4.907H44.83V9.94h10.294V4.907ZM31.828 27.45h-7.42v6.196h7.42V27.45Z" fill="#fff"/>
    <path d="M41.119 28.936H34.37v3.22h6.748v-3.22ZM42.375 5.817h-6.748v3.22h6.748v-3.22ZM25.475 16.145h-7.89v4.393h7.89v-4.393ZM47.555 8.652c.683 0 1.237-.549 1.237-1.226 0-.677-.554-1.225-1.237-1.225-.684 0-1.238.548-1.238 1.225s.554 1.226 1.238 1.226ZM53.413 6.247h-3.638v.793h3.638v-.793Z" fill="#C9C9C9"/>
    <path opacity=".22" d="M53.413 7.585h-3.638v.793h3.638v-.793Z" fill="#C9C9C9"/>
    <path opacity=".22" d="M29.936 29.161h-3.638v.793h3.638v-.793ZM29.936 31.054h-3.638v.793h3.638v-.793Z" fill="#24285B"/>
    <path opacity=".63" d="m18.365 12.225 1.454-2.224 1.713 1.984 1.637-2.849 1.53 3.132v.79h-6.334v-.833Z" fill="#fff"/>
    <path d="M21.473 9.6a.74.74 0 0 0 .744-.737.74.74 0 0 0-.744-.737.74.74 0 0 0-.744.737.74.74 0 0 0 .744.737Z" fill="#fff"/>
    <path opacity=".63" d="m49.32 28.781 1.455-2.226 1.71 1.984 1.638-2.847 1.532 3.132v.79h-6.336v-.833Z" fill="#fff"/>
    <path d="M52.426 26.16a.74.74 0 0 0 .744-.737.74.74 0 0 0-.744-.737.74.74 0 0 0-.744.737.74.74 0 0 0 .744.737Z" fill="#fff"/>
    <path opacity=".58" d="M22.754 43.685s-1.659-.433-2.026-1.967c0 0 2.565-.526 2.65 2.098l-.624-.131Z" fill="#1256A6"/>
    <path opacity=".73" d="M22.952 43.52s-1.166-1.808-.155-3.507c0 0 1.964 1.22 1.091 3.506h-.936Z" fill="#1256A6"/>
    <path d="M23.253 43.52s.604-1.918 2.45-2.287c0 0 .354 1.24-1.186 2.287h-1.264Z" fill="#1256A6"/>
    <path d="m22.052 43.484.345 2.276h2.114l.304-2.276h-2.763ZM16.882 3.367a.743.743 0 0 0 .746-.74.743.743 0 0 0-.746-.738.743.743 0 0 0-.746.739c0 .408.334.74.746.74Z" fill="#24285B"/>
    <path d="M19.103 3.367a.743.743 0 0 0 .746-.74.743.743 0 0 0-.746-.738.743.743 0 0 0-.747.739c0 .408.335.74.747.74Z" fill="#1277F0"/>
    <path d="M21.193 3.367a.743.743 0 0 0 .746-.74.743.743 0 0 0-.746-.738.743.743 0 0 0-.747.739c0 .408.334.74.747.74Z" fill="#FFD200"/>
    <path d="m34.698 18.59 2.183 2.197 3.201-4.896" stroke="#fff" stroke-miterlimit="10" stroke-linecap="round"/>
</svg>
