<svg width="13" height="10" viewBox="0 0 13 10" fill="none" xmlns="http://www.w3.org/2000/svg">
<path d="M2.16939 4.71875C1.80007 4.71875 1.46342 4.62926 1.15945 4.45028C0.85831 4.26847 0.616832 4.02557 0.435014 3.72159C0.256037 3.41761 0.166548 3.08097 0.166548 2.71165C0.166548 2.34233 0.256037 2.0071 0.435014 1.70597C0.616832 1.40199 0.85831 1.16051 1.15945 0.981534C1.46342 0.799716 1.80007 0.708807 2.16939 0.708807C2.53871 0.708807 2.87536 0.799716 3.17933 0.981534C3.48331 1.16051 3.72479 1.40199 3.90376 1.70597C4.08558 2.0071 4.17649 2.34233 4.17649 2.71165C4.17649 3.08097 4.08558 3.41761 3.90376 3.72159C3.72479 4.02557 3.48331 4.26847 3.17933 4.45028C2.87536 4.62926 2.53871 4.71875 2.16939 4.71875ZM2.16939 3.74716C2.36257 3.74716 2.53729 3.70028 2.69354 3.60653C2.84979 3.51278 2.97337 3.38778 3.06428 3.23153C3.15803 3.07528 3.2049 2.90199 3.2049 2.71165C3.2049 2.52131 3.15803 2.34801 3.06428 2.19176C2.97337 2.03551 2.84979 1.91193 2.69354 1.82102C2.53729 1.72727 2.36257 1.6804 2.16939 1.6804C1.97905 1.6804 1.80575 1.72727 1.6495 1.82102C1.49325 1.91193 1.36825 2.03551 1.2745 2.19176C1.18359 2.34801 1.13814 2.52131 1.13814 2.71165C1.13814 2.90199 1.18359 3.07528 1.2745 3.23153C1.36825 3.38778 1.49325 3.51278 1.6495 3.60653C1.80575 3.70028 1.97905 3.74716 2.16939 3.74716ZM12.9496 3.6108H11.62C11.5689 3.3267 11.4737 3.0767 11.3345 2.8608C11.1953 2.64489 11.0249 2.46165 10.8232 2.31108C10.6214 2.16051 10.3956 2.04687 10.1456 1.97017C9.89844 1.89347 9.63565 1.85511 9.35724 1.85511C8.8544 1.85511 8.40412 1.98153 8.00639 2.23438C7.61151 2.48722 7.29901 2.85795 7.06889 3.34659C6.84162 3.83523 6.72798 4.43182 6.72798 5.13636C6.72798 5.84659 6.84162 6.44602 7.06889 6.93466C7.29901 7.4233 7.61293 7.79261 8.01065 8.04261C8.40838 8.29261 8.85582 8.41761 9.35298 8.41761C9.62855 8.41761 9.88991 8.38068 10.1371 8.30682C10.3871 8.23011 10.6129 8.1179 10.8146 7.97017C11.0163 7.82244 11.1868 7.64205 11.326 7.42898C11.468 7.21307 11.5661 6.96591 11.62 6.6875L12.9496 6.69176C12.8786 7.12074 12.7408 7.51562 12.5362 7.87642C12.3345 8.23438 12.0746 8.54403 11.7564 8.8054C11.4411 9.06392 11.0803 9.2642 10.674 9.40625C10.2678 9.5483 9.82457 9.61932 9.34446 9.61932C8.58878 9.61932 7.91548 9.44034 7.32457 9.08239C6.73366 8.72159 6.26776 8.20597 5.92685 7.53551C5.58878 6.86506 5.41974 6.06534 5.41974 5.13636C5.41974 4.20455 5.5902 3.40483 5.93111 2.73722C6.27202 2.06676 6.73793 1.55256 7.32884 1.1946C7.91974 0.833807 8.59162 0.653409 9.34446 0.653409C9.80753 0.653409 10.2393 0.72017 10.6399 0.853693C11.0433 0.984375 11.4055 1.17756 11.7266 1.43324C12.0476 1.68608 12.3132 1.99574 12.5234 2.36222C12.7337 2.72585 12.8757 3.14205 12.9496 3.6108Z" fill="black"/>
</svg>
