<svg width="63" height="51" fill="none" xmlns="http://www.w3.org/2000/svg">
    <path d="M10.943 14.07s4.153-2.13 8.841-.514c4.688 1.618-4.42 4.262-4.42 4.262l-4.42-3.748Z" fill="#21559C"/>
    <path opacity=".08" d="M10.943 14.07s4.153-2.13 8.841-.514c4.688 1.618-4.42 4.262-4.42 4.262l-4.42-3.748Z" fill="#000"/>
    <path d="M5.887 15.607s-2.85 1.636-3.559 5.685c-.71 4.048 9.02 9.518 9.02 9.518l6.045-4.536s3.59-15.816-9.037-11.57l-2.47.903Z" fill="#145DB4"/>
    <path opacity=".45" d="M33.085 50.308c16.522 0 29.916-1.925 29.916-4.3s-13.394-4.3-29.916-4.3-29.915 1.925-29.915 4.3c0 2.374 13.393 4.3 29.915 4.3Z" fill="#E6E6E6"/>
    <path d="M49.699 6.54H15.366v39.468H49.7V6.54Z" fill="#E6E6E6"/>
    <path d="M45.693 28.91h-4.796v4.43h4.796v-4.43Z" fill="#24285B"/>
    <path d="M45.693 35.462h-4.796v4.43h4.796v-4.43Z" fill="#A5A5A5"/>
    <path opacity=".08" d="M42.226 32.036s-8.736 1.45-4.643 13.972h9.35l-4.707-13.972Z" fill="#000"/>
    <path d="m11.35 30.81 4.11 5.468-.094-8.487-4.016 3.02Z" fill="#24285B"/>
    <path d="M50.306 3.671H14.802v9.886h35.504V3.67ZM47.716 46.01a8.065 8.065 0 1 0 0-16.13 8.065 8.065 0 0 0 0 16.13Z" fill="#145DB4"/>
    <path d="m45.299 37.844 1.734 2.986 3.619-5.409" stroke="#fff" stroke-width="2" stroke-linecap="round" stroke-linejoin="round"/>
    <path d="M24.508 0h-2.847v8.615h2.847V0Z" fill="#F2F2F2"/>
    <path opacity=".08" d="M26.387 3.605h-1.88v5.008h1.88V3.605ZM45.173 3.605h-1.88v5.008h1.88V3.605Z" fill="#000"/>
    <path d="M43.294 0h-2.847v8.615h2.847V0Z" fill="#F2F2F2"/>
    <path d="M27.837 17.494h-7.793v2.357h7.793v-2.357Z" fill="#24285B"/>
    <path d="M25.073 22.398h-4.797v4.43h4.797v-4.43Z" fill="#fff"/>
    <path opacity=".32" d="M32.034 22.398h-4.797v4.43h4.797v-4.43Z" fill="#A5A5A5"/>
    <path d="M38.923 22.398h-4.796v4.43h4.796v-4.43Z" fill="#FFD200"/>
    <path d="M45.693 22.398h-4.796v4.43h4.796v-4.43Z" fill="#24285B"/>
    <path d="M5.752 15.69s-.122 1.553 1.3 2.299c1.42.746 1.278-1.149 1.278-1.149s.518.559 1.34-.177c.823-.735-1.11-2.082-1.11-2.082L5.752 15.69ZM25.073 28.91h-4.797v4.43h4.797v-4.43Z" fill="#fff"/>
    <path opacity=".32" d="M32.034 28.91h-4.797v4.43h4.797v-4.43ZM38.923 28.91h-4.796v4.43h4.796v-4.43Z" fill="#A5A5A5"/>
    <path d="M25.073 35.462h-4.797v4.43h4.797v-4.43Z" fill="#fff"/>
    <path opacity=".32" d="M32.034 35.462h-4.797v4.43h4.797v-4.43ZM38.923 35.462h-4.796v4.43h4.796v-4.43Z" fill="#A5A5A5"/>
    <path d="M7.966 13.974c.106.325.231.643.375.953.2.426.385 1.112-.214 1.57-.916.708-2.009-.756-2.009-.756s-1.408-1.174-.426-1.946c.903-.692 1.769-1.304 2.274.18Z" fill="#F4A28C"/>
    <path d="M4.582 13.62c-.193.213-.3.489-.302.776a.748.748 0 0 0 .407.716c.665.313 1.434.64 1.434.64s-.757-.68 0-.973c.756-.291 1.602-.04 1.845-.794.243-.755.426-1.183 0-1.654-.426-.47-.658-1.174-1.361-.548-.704.627-.64-.132-1.256-.36-.615-.228-1.359.126-1.065.674.247.468.67 1.078.298 1.523Z" fill="#24285B"/>
    <path d="M7.05 20.478c-.467-2.046-3.224-2.462-4.35-.69C1.293 22.01-.505 25.655.134 29.104c.993 5.468 5.265 10.299 15.24 7.173v-1.632s-3.516.752-6.563-.407c-3.047-1.16-4.432-4.79-3-7.754.822-1.716 1.674-4.098 1.24-6.007Z" fill="#1277F0"/>
    <path opacity=".2" d="M7.05 20.478c-.467-2.046-3.224-2.462-4.35-.69C1.293 22.01-.505 25.655.134 29.104c.993 5.468 5.265 10.299 15.24 7.173v-1.632s-3.516.752-6.563-.407c-3.047-1.16-4.432-4.79-3-7.754.822-1.716 1.674-4.098 1.24-6.007Z" fill="#fff" fill-opacity=".2"/>
    <path d="M15.366 36.278s-1.491-.923-.564-2.308c.927-1.385 2.804.463.564 2.308Z" fill="#F4A28C"/>
    <path opacity=".32" d="M49.699 13.557H15.366v2.05H49.7v-2.05Z" fill="#A5A5A5"/>
    <path d="M6.216 15.773s-.307-.456-.72-.213c-.414.242.22 1.056.72.213ZM8.192 15.018s-.388-.392-.075-.758c.314-.367 1.002.426.075.758ZM28.324 3.672s1.136-1.705 2.414-.853c1.279.853.143 1.982-2.414.853Z" fill="#F4A28C"/>
    <path opacity=".08" d="M10.943 14.07s5.796 9.103-2.24 15.07l2.645 1.67 4.018-3.02V14.9s-1.476-1.279-4.423-.83Z" fill="#000"/>
</svg>
