<svg width="63" height="46" fill="none" xmlns="http://www.w3.org/2000/svg">
    <path opacity=".45" d="M31.5 45.696c17.397 0 31.5-2.1 31.5-4.69 0-2.592-14.103-4.692-31.5-4.692S0 38.414 0 41.005c0 2.59 14.103 4.691 31.5 4.691Z" fill="#E6E6E6"/>
    <path d="m6.775 9.065-5.063.04.257 32.07 5.063-.04-.257-32.07Z" fill="#FFD200"/>
    <path d="m1.714 9.103 2.471-7.425 2.592 7.384-5.063.041Z" fill="#F4A28C"/>
    <path d="m3.062 5.053 2.301-.018-1.178-3.357-1.123 3.375Z" fill="#24285B"/>
    <path opacity=".08" d="m4.345 9.084-2.62.021.258 32.07 2.62-.021-.258-32.07Z" fill="#000"/>
    <path d="M57.31 37.74h-9.445v2.486h9.445v-2.487Z" fill="#E6E6E6"/>
    <path opacity=".43" d="M55.245 35.307h-9.444v2.487h9.444v-2.487Z" fill="#E6E6E6"/>
    <path opacity=".08" d="M1.855 25.448v3.21s2.752.307 5.064-1.193v-2.884l-1.989-.39-3.075 1.257Z" fill="#000"/>
    <path d="M51.557 3.634H20.27v36.61h31.288V3.634Z" fill="#C9C9C9"/>
    <path opacity=".08" d="M49.65 8.568H25.291v29.31h24.357V8.568Z" fill="#000"/>
    <path d="M48.092 6.88H23.734v29.31h24.358V6.88Z" fill="#fff"/>
    <path opacity=".08" d="M21.21 11.684s4.715.454 5.883 6.588l3.786-5.063s2.202-.267 1.229 1.752c-.639 1.329-.795 5.153-2.473 7.741a44.203 44.203 0 0 0-6.55 16.915l-.081.506-2.288.103.633-18.708-.139-9.834Z" fill="#000"/>
    <path d="M30.005 0h-2.057v8.568h2.057V0ZM43.914 0h-2.057v8.568h2.057V0Z" fill="#F2F2F2"/>
    <path d="M45.196 11.359h-5.194v5.193h5.194V11.36ZM45.196 18.938h-5.194v5.194h5.194v-5.194ZM45.196 26.519h-5.194v5.193h5.194V26.52Z" fill="#145DB4"/>
    <path d="M11.885 14.01c-1.385 2.996-5.523 8.838-9.52 9.512v2.099s7.162-.372 13.465-6.668c2.623-2.625 2.578-4.438 1.634-5.66-1.498-1.934-4.555-1.5-5.58.718Z" fill="#164D97"/>
    <path opacity=".08" d="M11.885 14.01c-1.385 2.996-5.523 8.838-9.52 9.512v2.099s7.162-.372 13.465-6.668c2.623-2.625 2.578-4.438 1.634-5.66-1.498-1.934-4.555-1.5-5.58.718Z" fill="#164D97"/>
    <path d="M37.47 12.852h-9.347v2.207h9.347v-2.207Z" fill="#A5A5A5"/>
    <path opacity=".44" d="M37.47 20.431h-9.347v2.206h9.347v-2.206Z" fill="#A5A5A5"/>
    <path opacity=".13" d="M37.47 28.01h-9.347v2.207h9.347V28.01Z" fill="#A5A5A5"/>
    <path d="m41.17 13.955 1.039 1.332 1.752-2.435M41.17 21.42l1.039 1.332 1.752-2.434M41.17 28.887l1.039 1.332 1.752-2.434" stroke="#fff" stroke-miterlimit="10" stroke-linecap="round"/>
    <path d="m15.201 9.12.746 2.235-1.77 1.125-.637-3.875 1.661.514Z" fill="#F4A28C"/>
    <path d="M14.087 6.311a1.393 1.393 0 0 1 2.28.507c.39 1.028.758 2.553-.455 2.814-1.858.389-2.448-1.99-2.448-1.99.072-.496.289-.958.623-1.33Z" fill="#F4A28C"/>
    <path d="M14.081 7.815s-.403-.337-.584.142c-.181.479.528.709.74.467.212-.241-.156-.61-.156-.61Z" fill="#F4A28C"/>
    <path d="M12.11 13.577a4.528 4.528 0 0 1 2.838-2.477c2.405-.723 6.831.068 8.179 2.317 1.848 3.079-.857 12.853-.857 12.853l-8.07.634s-4.453-8.017-2.09-13.327Z" fill="#145DB4"/>
    <path d="m22.271 26.277-1.063 13.89h-1.68l-1.5-10.792-3.715-2.47 7.958-.628Z" fill="#24285B"/>
    <path d="m14.312 26.904-2.317 13.264h1.801l3.891-11.018-3.375-2.246Z" fill="#24285B"/>
    <path opacity=".08" d="M15.647 10.89s-3.784 12.172 7.133 12.979l-.509 2.408-8.071.627s-3.155-5.499-2.726-10.749c0 0 .068-3.106 2.253-4.479a4.917 4.917 0 0 1 1.92-.786Z" fill="#000"/>
    <path d="m12.418 40.14-1.086.799a.24.24 0 0 0 .142.432h1.819a.24.24 0 0 0 .237-.24v-.99h-1.112ZM20.998 40.14l1.022.799a.242.242 0 0 1-.009.388.241.241 0 0 1-.14.044h-1.294a.69.69 0 0 1-.691-.691v-.54h1.112ZM18.942 11.036a4.074 4.074 0 0 0 0 4.31c.88 1.487 3.437 4.386 5.19 6.297a1.847 1.847 0 0 0 2.988-.353l3.767-6.636-1.278-.82-3.45 5.063s-2.363-7.764-7.217-7.861Z" fill="#1277F0"/>
    <path d="M30.44 14.372s2.143-.78 1.267-1.995c-.877-1.215-2.098 1.461-2.098 1.461l.832.534Z" fill="#F4A28C"/>
    <path d="m13.68 9.244-.649-1.597a1.303 1.303 0 0 1 .028-1.04c.263-.572.765-1.454 1.532-1.947 1.204-.79 2.382-.795 2.25.255-.133 1.05.373-.054.778.697.405.752.162.995-.432 1.065-.594.07-1.753.05-2.17.814-.416.766.09 1.706-1.337 1.753Z" fill="#24285B"/>
    <path d="M2.364 23.522s-1.116-.475-1.539.562c-.422 1.038 1.539 1.537 1.539 1.537v-2.1Z" fill="#F4A28C"/>
    <path d="m7.007 35.595-5.123.041.046 5.756 5.123-.04-.046-5.757Z" fill="#24285B"/>
</svg>
