<svg width="14" height="14" viewBox="0 0 14 14" fill="none" xmlns="http://www.w3.org/2000/svg">
<g clip-path="url(#clip0_252_4159)">
<path d="M6.81437 1.13672C3.67717 1.13672 1.13672 3.68285 1.13672 6.82005C1.13672 9.95725 3.67717 12.5034 6.81437 12.5034C9.95725 12.5034 12.5034 9.95725 12.5034 6.82005C12.5034 3.68285 9.95725 1.13672 6.81437 1.13672ZM6.82005 11.3667C4.30802 11.3667 2.27339 9.33208 2.27339 6.82005C2.27339 4.30802 4.30802 2.27339 6.82005 2.27339C9.33208 2.27339 11.3667 4.30802 11.3667 6.82005C11.3667 9.33208 9.33208 11.3667 6.82005 11.3667Z" fill="black"/>
<path d="M7.10445 3.97852H6.25195V7.38852L9.2357 9.17877L9.66195 8.47972L7.10445 6.96227V3.97852Z" fill="black"/>
</g>
<defs>
<clipPath id="clip0_252_4159">
<rect width="13.64" height="13.64" fill="white"/>
</clipPath>
</defs>
</svg>
