<svg data-name="Layer 1" xmlns="http://www.w3.org/2000/svg" viewBox="0 0 430 103.97">
    <path d="M430 93.15V0c-39.34 3.19-74.91 37-90.43 57.73-34.17-13.6-49 5.67-52.08 17-23.75-26.41-38.72-11-43.23 0-32.5-20.81-58.68-8.67-67.71 0-15.41-18.41-56.07-15.67-74.47-12-20.42-20-47.39-11.67-58.33-5-9.17-36.81-33-27-43.75-17.5v52.92Z" style="fill:#78addd"/>
    <path d="M430 93.15V39.51h-28c-59.6-16.8-72.17 21.67-71 43-31.6-24.4-65.83-8.5-79 2.5-32.8-19.2-75.67-9.67-93-2.5-36.85-31.9-59.27-21.67-71.25-3.33l-15.18 1.27c-1-4.66-2.23-9.69-3.57-14.94-4.8-18.8-23.13-22.2-30.43-19.87l-9.88 47.51Z" style="fill:#97bfe6;fill-opacity:.69"/>
    <path d="M430 104V23.3c-23.5 0-75 18-97.64 37.67C325 64.3 296.5 61 285 90.17c-32-32.37-61.24-14.82-73.29-3.49-29.66-13.94-61.8-5.81-74.17 0-17.65-20.22-41.15-13.94-50.69-8.28-6.76-11.5-25-12.34-33.33-11.33C40.37 32.56 12.36 30.61 0 34v70Z" style="fill:#fff"/>
</svg>
