<svg width="33" height="33" viewBox="0 0 33 33" fill="none" xmlns="http://www.w3.org/2000/svg">
<path d="M13.7268 4.38057C14.3894 1.64918 18.2749 1.64918 18.9376 4.38057C19.037 4.7909 19.2319 5.17196 19.5064 5.49273C19.7809 5.8135 20.1273 6.06491 20.5174 6.22651C20.9074 6.38811 21.3301 6.45533 21.7511 6.42269C22.172 6.39005 22.5793 6.25849 22.9398 6.0387C25.3398 4.57656 28.0883 7.32351 26.6262 9.72514C26.4067 10.0855 26.2754 10.4925 26.2428 10.9132C26.2102 11.3338 26.2774 11.7562 26.4388 12.146C26.6002 12.5358 26.8513 12.8821 27.1717 13.1566C27.4921 13.4311 27.8728 13.6261 28.2828 13.7258C31.0142 14.3884 31.0142 18.274 28.2828 18.9366C27.8724 19.036 27.4914 19.2309 27.1706 19.5054C26.8498 19.78 26.5984 20.1263 26.4368 20.5164C26.2752 20.9064 26.208 21.3291 26.2406 21.7501C26.2733 22.171 26.4049 22.5783 26.6246 22.9388C28.0868 25.3389 25.3398 28.0874 22.9382 26.6252C22.5779 26.4057 22.1708 26.2744 21.7502 26.2418C21.3295 26.2093 20.9071 26.2764 20.5173 26.4378C20.1275 26.5992 19.7813 26.8504 19.5068 27.1708C19.2323 27.4912 19.0373 27.8718 18.9376 28.2818C18.2749 31.0132 14.3894 31.0132 13.7268 28.2818C13.6273 27.8715 13.4324 27.4904 13.1579 27.1696C12.8834 26.8489 12.537 26.5975 12.147 26.4359C11.7569 26.2743 11.3342 26.207 10.9133 26.2397C10.4923 26.2723 10.085 26.4039 9.72456 26.6237C7.32448 28.0858 4.57598 25.3389 6.03812 22.9372C6.25759 22.5769 6.38895 22.1699 6.42151 21.7492C6.45407 21.3286 6.38692 20.9062 6.22551 20.5163C6.06409 20.1265 5.81298 19.7803 5.49257 19.5058C5.17217 19.2313 4.79151 19.0363 4.38155 18.9366C1.65016 18.274 1.65016 14.3884 4.38155 13.7258C4.79188 13.6264 5.17294 13.4315 5.4937 13.1569C5.81447 12.8824 6.06589 12.536 6.22749 12.146C6.38909 11.7559 6.4563 11.3332 6.42367 10.9123C6.39103 10.4913 6.25946 10.0841 6.03967 9.72358C4.57754 7.32351 7.32448 4.57501 9.72611 6.03714C11.2754 6.98286 13.2975 6.14602 13.7268 4.38057Z" stroke="#0777E8" stroke-width="3.06231" stroke-linecap="round" stroke-linejoin="round"/>
<path d="M20.9988 16.3304C20.9988 17.568 20.5071 18.755 19.632 19.6301C18.7569 20.5052 17.57 20.9968 16.3324 20.9968C15.0948 20.9968 13.9079 20.5052 13.0328 19.6301C12.1577 18.755 11.666 17.568 11.666 16.3304C11.666 15.0928 12.1577 13.9059 13.0328 13.0308C13.9079 12.1557 15.0948 11.6641 16.3324 11.6641C17.57 11.6641 18.7569 12.1557 19.632 13.0308C20.5071 13.9059 20.9988 15.0928 20.9988 16.3304V16.3304Z" stroke="#0777E8" stroke-width="4.08309" stroke-linecap="round" stroke-linejoin="round"/>
</svg>
