<svg width="24" height="24" viewBox="0 0 24 24" fill="none" xmlns="http://www.w3.org/2000/svg">
<path fill-rule="evenodd" clip-rule="evenodd" d="M12.0042 0.856934C9.65864 0.856934 7.76257 0.927656 5.80089 1.06253C3.72158 1.20549 2.06732 2.86183 1.93655 4.94523C1.79358 7.22307 1.71848 9.58265 1.71848 11.9998C1.71848 14.4169 1.79358 16.7765 1.93655 19.0544C2.06732 21.1378 3.72158 22.7941 5.80089 22.9371C7.76257 23.0718 9.65864 23.1426 12.0042 23.1426C14.3498 23.1426 16.2458 23.0718 18.2074 22.9371C20.2869 22.7941 21.9412 21.1378 22.0718 19.0544C22.2148 16.7765 22.2898 14.4169 22.2898 11.9998C22.2898 11.0208 22.2777 10.0513 22.2535 9.09286C22.2322 8.25401 21.9602 7.43424 21.4584 6.7507C19.9092 4.64019 18.6533 3.30331 16.6029 1.72083C15.9088 1.18509 15.0628 0.8987 14.1995 0.879836C13.5039 0.864636 12.7783 0.856934 12.0042 0.856934Z" fill="#01ADFB"/>
<path fill-rule="evenodd" clip-rule="evenodd" d="M22.2831 10.7488C20.8109 8.70346 18.3789 8.36702 16.4 8.38073C14.9798 8.39055 13.8315 7.34407 13.8315 5.9239V0.872559C13.9552 0.874758 14.0778 0.877189 14.1995 0.879849C15.0628 0.898713 15.9087 1.18511 16.6029 1.72085C18.6533 3.30331 19.9092 4.64019 21.4584 6.75072C21.9602 7.43426 22.2322 8.25403 22.2535 9.09286C22.2672 9.64131 22.2771 10.1934 22.2831 10.7488Z" fill="#006FB0"/>
</svg>
