<svg width="11" height="14" viewBox="0 0 11 14" fill="none" xmlns="http://www.w3.org/2000/svg">
<path d="M10 8.76549C10 11.3641 8.26156 13 5.5 13C2.73844 13 1 11.3641 1 8.76549C1 5.97688 4.22594 2.21228 5.21531 1.12336C5.25052 1.08467 5.2942 1.05362 5.34337 1.03232C5.39254 1.01103 5.44603 1 5.50016 1C5.55428 1 5.60777 1.01103 5.65694 1.03232C5.70611 1.05362 5.7498 1.08467 5.785 1.12336C6.77406 2.21228 10 5.97688 10 8.76549Z" stroke="#23C033" stroke-miterlimit="10"/>
<path d="M8.24219 9.00195C8.24219 9.56348 8.00513 10.102 7.58318 10.4991C7.16122 10.8961 6.58892 11.1192 5.99219 11.1192" stroke="#23C033" stroke-linecap="round" stroke-linejoin="round"/>
</svg>
