<svg width="60" height="58" viewBox="0 0 60 58" fill="none" xmlns="http://www.w3.org/2000/svg">
<path d="M14 6V2.608C14 1.164 15.116 0 16.5 0C17.884 0 19 1.164 19 2.608V6H14ZM39 34.4C39 34.0287 39.1475 33.6726 39.41 33.41C39.6726 33.1475 40.0287 33 40.4 33H45.6C45.9713 33 46.3274 33.1475 46.59 33.41C46.8525 33.6726 47 34.0287 47 34.4V39.6C47 39.9713 46.8525 40.3274 46.59 40.59C46.3274 40.8525 45.9713 41 45.6 41H40.4C40.0287 41 39.6726 40.8525 39.41 40.59C39.1475 40.3274 39 39.9713 39 39.6V34.4ZM13 24.4C13 24.0287 13.1475 23.6726 13.4101 23.4101C13.6726 23.1475 14.0287 23 14.4 23H19.6C19.9713 23 20.3274 23.1475 20.5899 23.4101C20.8525 23.6726 21 24.0287 21 24.4V29.6C21 29.9713 20.8525 30.3274 20.5899 30.59C20.3274 30.8525 19.9713 31 19.6 31H14.4C14.0287 31 13.6726 30.8525 13.4101 30.59C13.1475 30.3274 13 29.9713 13 29.6V24.4ZM15 25V29H19V25H15ZM26 24.4C26 24.0287 26.1475 23.6726 26.4101 23.4101C26.6726 23.1475 27.0287 23 27.4 23H32.6C32.9713 23 33.3274 23.1475 33.59 23.4101C33.8525 23.6726 34 24.0287 34 24.4V29.6C34 29.9713 33.8525 30.3274 33.59 30.59C33.3274 30.8525 32.9713 31 32.6 31H27.4C27.0287 31 26.6726 30.8525 26.4101 30.59C26.1475 30.3274 26 29.9713 26 29.6V24.4ZM28 25V29H32V25H28ZM39 24.4C39 24.0287 39.1475 23.6726 39.41 23.4101C39.6726 23.1475 40.0287 23 40.4 23H45.6C45.9713 23 46.3274 23.1475 46.59 23.4101C46.8525 23.6726 47 24.0287 47 24.4V29.6C47 29.9713 46.8525 30.3274 46.59 30.59C46.3274 30.8525 45.9713 31 45.6 31H40.4C40.0287 31 39.6726 30.8525 39.41 30.59C39.1475 30.3274 39 29.9713 39 29.6V24.4ZM41 25V29H45V25H41ZM13 34.4C13 34.0287 13.1475 33.6726 13.4101 33.41C13.6726 33.1475 14.0287 33 14.4 33H19.6C19.9713 33 20.3274 33.1475 20.5899 33.41C20.8525 33.6726 21 34.0287 21 34.4V39.6C21 39.9713 20.8525 40.3274 20.5899 40.59C20.3274 40.8525 19.9713 41 19.6 41H14.4C14.0287 41 13.6726 40.8525 13.4101 40.59C13.1475 40.3274 13 39.9713 13 39.6V34.4ZM15 35V39H19V35H15ZM26 34.4C26 34.0287 26.1475 33.6726 26.4101 33.41C26.6726 33.1475 27.0287 33 27.4 33H32.6C32.9713 33 33.3274 33.1475 33.59 33.41C33.8525 33.6726 34 34.0287 34 34.4V39.6C34 39.9713 33.8525 40.3274 33.59 40.59C33.3274 40.8525 32.9713 41 32.6 41H27.4C27.0287 41 26.6726 40.8525 26.4101 40.59C26.1475 40.3274 26 39.9713 26 39.6V34.4ZM28 35V39H32V35H28ZM13 44.4C13 44.0287 13.1475 43.6726 13.4101 43.41C13.6726 43.1475 14.0287 43 14.4 43H19.6C19.9713 43 20.3274 43.1475 20.5899 43.41C20.8525 43.6726 21 44.0287 21 44.4V49.6C21 49.9713 20.8525 50.3274 20.5899 50.59C20.3274 50.8525 19.9713 51 19.6 51H14.4C14.0287 51 13.6726 50.8525 13.4101 50.59C13.1475 50.3274 13 49.9713 13 49.6V44.4ZM15 45V49H19V45H15ZM26 44.4C26 44.0287 26.1475 43.6726 26.4101 43.41C26.6726 43.1475 27.0287 43 27.4 43H32.6C32.9713 43 33.3274 43.1475 33.59 43.41C33.8525 43.6726 34 44.0287 34 44.4V49.6C34 49.9713 33.8525 50.3274 33.59 50.59C33.3274 50.8525 32.9713 51 32.6 51H27.4C27.0287 51 26.6726 50.8525 26.4101 50.59C26.1475 50.3274 26 49.9713 26 49.6V44.4ZM28 45V49H32V45H28Z" fill="#90979E"/>
<path d="M14 9.39209C14 10.8361 15.116 12.0001 16.5 12.0001C17.884 12.0001 19 10.8361 19 9.39209V6.00009H41V9.39209C41 10.8361 42.116 12.0001 43.5 12.0001C44.884 12.0001 46 10.8361 46 9.39209V6.00009H52.482C56.622 6.00009 60 9.38209 60 13.5701V48.4801C60 53.7201 55.75 58.0001 50.482 58.0001H9.52C6.99644 57.9959 4.57745 56.9915 2.79302 55.2071C1.00859 53.4226 0.00423062 51.0037 0 48.4801V13.5701C0 9.38209 3.38 5.98009 7.518 6.00009H14V9.39209ZM4 18.0001V48.4801C4.00422 49.9424 4.58687 51.3437 5.62072 52.378C6.65458 53.4122 8.05565 53.9953 9.518 54.0001H43.02V51.0001H40.4C40.0287 51.0001 39.6726 50.8526 39.41 50.59C39.1475 50.3275 39 49.9714 39 49.6001V44.4001C39 44.0288 39.1475 43.6727 39.41 43.4101C39.6726 43.1476 40.0287 43.0001 40.4 43.0001H45.6C45.7354 43 45.8702 43.0195 46 43.0581C47.5401 41.73 49.5063 40.9996 51.54 41.0001H56V18.0001H4ZM43.042 48.8941C43.143 47.5108 43.5826 46.1735 44.322 45.0001H41V49.0001H43.036L43.042 48.8941ZM45.02 53.5861L55.606 43.0001H51.54C49.8124 43.0054 48.1571 43.694 46.9355 44.9156C45.7139 46.1372 45.0253 47.7925 45.02 49.5201V53.5861Z" fill="#90979E"/>
<path d="M41 2.608V6H46V2.608C46 1.164 44.884 0 43.5 0C42.116 0 41 1.164 41 2.608Z" fill="#90979E"/>
</svg>
