<svg width="24" height="24" viewBox="0 0 24 24" fill="none" xmlns="http://www.w3.org/2000/svg">
<path d="M10 2.00023V9.31024M14 9.30023V1.99023M8.50001 2.00023H15.5M14 9.30023C15.4733 9.77668 16.7282 10.7634 17.5386 12.0829C18.3491 13.4023 18.6619 14.9677 18.4207 16.4972C18.1795 18.0268 17.4002 19.42 16.2231 20.4261C15.046 21.4321 13.5485 21.9849 12 21.9849C10.4516 21.9849 8.95398 21.4321 7.77688 20.4261C6.59978 19.42 5.8205 18.0268 5.57933 16.4972C5.33817 14.9677 5.65096 13.4023 6.4614 12.0829C7.27184 10.7634 8.52669 9.77668 10 9.30023M5.58001 16.5002H18.43" stroke="#102235" stroke-width="2" stroke-linecap="round" stroke-linejoin="round"/>
</svg>
