<svg width="24" height="24" viewBox="0 0 24 24" fill="none" xmlns="http://www.w3.org/2000/svg">
<g clip-path="url(#clip0_144_99)">
<path d="M8.39999 14.1343H15.5983V22.5377H8.39999V14.1343Z" fill="#90979E"/>
<path d="M20.8413 15.5507H22.7143C23.2171 15.5507 23.6738 15.2577 23.8831 14.8006C24.0926 14.3435 24.0165 13.8063 23.6882 13.4255L14.2723 2.5031C13.0755 1.11485 10.9245 1.11486 9.72778 2.5031L0.311921 13.4255C-0.0163572 13.8063 -0.0925526 14.3435 0.116885 14.8006C0.326323 15.2577 0.782964 15.5507 1.28573 15.5507H3.15862C3.12182 16.9838 3.21285 18.4191 3.43159 19.8396C3.67065 21.3921 5.00647 22.5379 6.57717 22.5379H9.99799C9.99799 22.5379 9.99799 22.1541 9.99799 21.6807V17.3265C9.99799 16.221 10.8941 15.3249 11.9996 15.3249C13.1051 15.3249 14.0012 16.221 14.0012 17.3265V21.6807C14.0012 22.1541 14.0012 22.5379 14.0012 22.5379H17.4226C18.9934 22.5379 20.3292 21.3921 20.5683 19.8396C20.7871 18.4191 20.8781 16.9838 20.8413 15.5507Z" fill="#BABEC2"/>
</g>
<defs>
<clipPath id="clip0_144_99">
<rect width="24" height="24" fill="white"/>
</clipPath>
</defs>
</svg>
