<svg width="20" height="20" viewBox="0 0 20 20" fill="none" xmlns="http://www.w3.org/2000/svg">
<g clip-path="url(#clip0_245_3468)">
<path d="M8 8.66113C8 8.1307 8.21071 7.62199 8.58579 7.24692C8.96086 6.87185 9.46957 6.66113 10 6.66113C10.5304 6.66113 11.0391 6.87185 11.4142 7.24692C11.7893 7.62199 12 8.1307 12 8.66113C12 9.19157 11.7893 9.70027 11.4142 10.0753C11.0391 10.4504 10.5304 10.6611 10 10.6611C9.46957 10.6611 8.96086 10.4504 8.58579 10.0753C8.21071 9.70027 8 9.19157 8 8.66113Z" fill="#37BBF3"/>
<path fill-rule="evenodd" clip-rule="evenodd" d="M1.33203 8.66133C1.33309 6.36361 2.2467 4.16037 3.87193 2.53613C5.49717 0.911893 7.70097 -0.000353693 9.9987 1.02871e-07C14.784 1.02871e-07 18.6654 3.87867 18.6654 8.66133C18.6654 12.2267 16.8814 15.052 14.9694 16.9613C14.1242 17.8102 13.1769 18.551 12.1494 19.1667C11.72 19.42 11.3187 19.62 10.9694 19.756C10.64 19.8867 10.2947 19.988 9.9987 19.988C9.7027 19.988 9.35736 19.8867 9.02803 19.756C8.6202 19.59 8.22571 19.393 7.84803 19.1667C6.82049 18.5509 5.87326 17.8102 5.02803 16.9613C3.11603 15.052 1.33203 12.2267 1.33203 8.66133ZM9.9987 5.32933C9.11464 5.32933 8.2668 5.68052 7.64168 6.30564C7.01655 6.93077 6.66536 7.77861 6.66536 8.66267C6.66536 9.54672 7.01655 10.3946 7.64168 11.0197C8.2668 11.6448 9.11464 11.996 9.9987 11.996C10.8828 11.996 11.7306 11.6448 12.3557 11.0197C12.9808 10.3946 13.332 9.54672 13.332 8.66267C13.332 7.77861 12.9808 6.93077 12.3557 6.30564C11.7306 5.68052 10.8828 5.32933 9.9987 5.32933Z" fill="#37BBF3"/>
</g>
<defs>
<clipPath id="clip0_245_3468">
<rect width="20" height="20" fill="white"/>
</clipPath>
</defs>
</svg>
