<svg width="18" height="18" viewBox="0 0 18 18" fill="none" xmlns="http://www.w3.org/2000/svg">
<g clip-path="url(#clip0_245_3370)">
<path d="M13.125 4.875L17.25 6.75V16.5L12 14.25M12 14.25L6 16.5M12 14.25V9M6 16.5L0.75 14.25V4.5L4.5 6M6 16.5V9M9 12.2048C9 12.2048 4.5 8.625 4.5 5.25C4.5 2.4375 6.75 0.75 9 0.75C11.25 0.75 13.5 2.4375 13.5 5.25C13.5 8.625 9 12.2048 9 12.2048ZM9.75 5.25C9.75 5.05109 9.67098 4.86032 9.53033 4.71967C9.38968 4.57902 9.19891 4.5 9 4.5C8.80109 4.5 8.61032 4.57902 8.46967 4.71967C8.32902 4.86032 8.25 5.05109 8.25 5.25C8.25 5.44891 8.32902 5.63968 8.46967 5.78033C8.61032 5.92098 8.80109 6 9 6C9.19891 6 9.38968 5.92098 9.53033 5.78033C9.67098 5.63968 9.75 5.44891 9.75 5.25Z" stroke="#0A58B4" stroke-width="1.5"/>
</g>
<defs>
<clipPath id="clip0_245_3370">
<rect width="18" height="18" fill="white"/>
</clipPath>
</defs>
</svg>
