<svg width="24" height="10" viewBox="0 0 24 10" fill="none" xmlns="http://www.w3.org/2000/svg">
<path d="M8.02295 9.0752H6.83995L2.08195 1.8602V9.0752H0.898949V0.00119513H2.08195L6.83995 7.2032V0.00119513H8.02295V9.0752ZM15.6166 0.014195V0.976195H13.1466V9.0752H11.9636V0.976195H9.48057V0.014195H15.6166ZM18.2298 0.014195V5.7472C18.2298 6.5532 18.4248 7.1512 18.8148 7.5412C19.2134 7.9312 19.7638 8.1262 20.4658 8.1262C21.1591 8.1262 21.7008 7.9312 22.0908 7.5412C22.4894 7.1512 22.6888 6.5532 22.6888 5.7472V0.014195H23.8718V5.7342C23.8718 6.4882 23.7201 7.1252 23.4168 7.6452C23.1134 8.15653 22.7018 8.53786 22.1818 8.7892C21.6704 9.04053 21.0941 9.1662 20.4528 9.1662C19.8114 9.1662 19.2308 9.04053 18.7108 8.7892C18.1994 8.53786 17.7921 8.15653 17.4888 7.6452C17.1941 7.1252 17.0468 6.4882 17.0468 5.7342V0.014195H18.2298Z" fill="#3F4254"/>
</svg>
