<svg width="25" height="10" viewBox="0 0 25 10" fill="none" xmlns="http://www.w3.org/2000/svg">
<path d="M7.72408 0.772727V9.5H6.31783L2.20561 3.5554H2.13317V9.5H0.552202V0.772727H1.96697L6.07493 6.72159H6.15163V0.772727H7.72408ZM9.06321 2.09801V0.772727H16.0263V2.09801H13.3288V9.5H11.7607V2.09801H9.06321ZM22.87 0.772727H24.451V6.47443C24.451 7.09943 24.3033 7.64915 24.0078 8.12358C23.7152 8.59801 23.3033 8.96875 22.772 9.2358C22.2408 9.5 21.62 9.6321 20.9098 9.6321C20.1967 9.6321 19.5746 9.5 19.0433 9.2358C18.5121 8.96875 18.1001 8.59801 17.8075 8.12358C17.5149 7.64915 17.3686 7.09943 17.3686 6.47443V0.772727H18.9496V6.34233C18.9496 6.70597 19.0291 7.02983 19.1882 7.31392C19.3501 7.59801 19.5774 7.82102 19.87 7.98295C20.1626 8.14205 20.5092 8.22159 20.9098 8.22159C21.3104 8.22159 21.657 8.14205 21.9496 7.98295C22.245 7.82102 22.4723 7.59801 22.6314 7.31392C22.7905 7.02983 22.87 6.70597 22.87 6.34233V0.772727Z" fill="black"/>
</svg>
