<svg width="63" height="52" fill="none" xmlns="http://www.w3.org/2000/svg">
    <path d="m34.537 36.03-3.323 2.21.713 1.073 3.323-2.21-.713-1.073Z" fill="#FFD200"/>
    <path d="m31.856 25.6-.911.614a3.011 3.011 0 0 0-1.083 3.677l2.285 5.362 1.54-.546-.455-7.355-1.376-1.752Z" fill="#F4A28C"/>
    <path opacity=".08" d="m31.856 25.6-.911.614a3.011 3.011 0 0 0-1.083 3.677l2.285 5.362 1.54-.546-.455-7.355-1.376-1.752Z" fill="#000"/>
    <path d="M31.887 34.61s.108 1.462-.986 2.065c-1.095.603-.896 1.85.255 1.684 1.151-.165 3.207-2.659 3.207-2.659l-.805-1.61-1.671.52Z" fill="#1277F0"/>
    <path d="m35.97 22.688-4.392 2.56 1.651 2.104 4.447-4.524-1.706-.14ZM11.671 24.323s-2.844-.341-2.844.912c0 1.252.584 2.844 3.632 1.058l-.788-1.97Z" fill="#24285B"/>
    <path d="M23.618 6.202s-3.743.326-4.23 4.088c-.486 3.762 1.139 11.17 1.139 11.17l-9.012 2.886.788 1.968 8.772-.956a4.843 4.843 0 0 0 4.009-3.102c1.794-4.732 4.409-14.015-1.466-16.054Z" fill="#F4A28C"/>
    <path opacity=".08" d="M23.618 6.202s-3.743.326-4.23 4.088c-.486 3.762 1.139 11.17 1.139 11.17l-9.012 2.886.788 1.968 8.772-.956a4.843 4.843 0 0 0 4.009-3.102c1.794-4.732 4.409-14.015-1.466-16.054Z" fill="#000"/>
    <path opacity=".45" d="M33.654 51.866C49.86 51.866 63 50.204 63 48.153s-13.139-3.714-29.346-3.714c-16.208 0-29.346 1.663-29.346 3.714 0 2.05 13.138 3.713 29.346 3.713Z" fill="#E6E6E6"/>
    <path d="M14.55 3.268s.15 1.745.637 2.837a.88.88 0 0 0 1.166.44c.548-.253 1.213-.755 1.246-1.7l.253-1.595a1.574 1.574 0 0 0-.97-1.541c-1.086-.526-2.468.502-2.332 1.559Z" fill="#F4A28C"/>
    <path d="m17.102 3.41 4.89 3.001-1.845 2.576L17.4 5.852l-.297-2.441Z" fill="#F4A28C"/>
    <path d="M14.456 3.252c.18.034.363.039.544.014a7.006 7.006 0 0 0 1.567-.399 1.462 1.462 0 0 0 .275 1.578c.683.733 1.812-.083 1.812-.083l-.729-1.907a1.786 1.786 0 0 0-1.173-1.41 6.143 6.143 0 0 0-.801-.234" fill="#24285B"/>
    <path d="M16.648 4.426s-.103-.66.405-.703c.509-.041.66.927 0 1.134l-.405-.431ZM14.71 4.361l-.366.749a.279.279 0 0 0 .249.403l.682.01-.566-1.162Z" fill="#F4A28C"/>
    <path opacity=".31" d="M17.4 5.85s.376-.522.277-1.037c0 0 1.127.555.588 2.025l-.866-.988Z" fill="#CE8172"/>
    <path d="M13.294 2.953a.765.765 0 0 0 .817.761 6.618 6.618 0 0 0 2.37-.57c.72-.343 1.262-.627 1.625-.825a.542.542 0 0 0 .17-.804 1.012 1.012 0 0 1-.084-1.114l.073-.13a.18.18 0 0 0-.157-.27c-1.094-.014-4.781.189-4.814 2.952Z" fill="#FFD200"/>
    <path d="M16.312 3.224a5.127 5.127 0 0 0 .705 2.903l.286-.119a5.222 5.222 0 0 1-.66-2.94l-.33.156Z" fill="#fff"/>
    <path d="M17.4 2.69s.532 2.067-.606 2.395l.103.247s1.284-.165.753-2.771l-.25.13Z" fill="#fff"/>
    <path d="M46.25 48.034a7.102 7.102 0 1 1 7.1-7.101 7.108 7.108 0 0 1-7.1 7.101Zm0-13.287a6.188 6.188 0 1 0 6.186 6.186 6.194 6.194 0 0 0-6.186-6.186ZM21.122 48.417a7.101 7.101 0 1 1 0-14.202 7.101 7.101 0 0 1 0 14.202Zm0-13.287a6.188 6.188 0 1 0 6.197 6.188 6.194 6.194 0 0 0-6.197-6.188Z" fill="#1277F0"/>
    <path d="M21.122 49.078a7.765 7.765 0 1 1 7.764-7.765 7.773 7.773 0 0 1-7.764 7.765Zm0-14.53a6.767 6.767 0 1 0 6.767 6.768 6.774 6.774 0 0 0-6.767-6.767ZM46.25 48.7a7.767 7.767 0 1 1 7.764-7.767 7.775 7.775 0 0 1-7.764 7.766Zm0-14.53a6.767 6.767 0 1 0-.004 13.539 6.767 6.767 0 0 0 .004-13.54v.001Z" fill="#24285B"/>
    <path d="M19.543 7.42s1.32-3.998 8.433-2.823c7.113 1.176 15.108 7.22 15.212 15.823l-6.701 2.928s-3.688-5.479-9.371-3.839c-5.684 1.64-12.282-4.552-7.573-12.09Z" fill="#1277F0"/>
    <path d="m46.525 40.974-6.163-9.276a.337.337 0 0 0-.251-.148l1.7-4.502a.333.333 0 1 0-.624-.235l-1.2 3.18c-4.378-1.588-11.812-1.787-13.428-1.81.028-.352.033-.704.016-1.055a.894.894 0 0 0-.894-.88h-2.105a2.447 2.447 0 0 0-1.75.708 1.835 1.835 0 0 0-.528 1.616c.244 1.563 1.5 2.133 2.034 2.153a.333.333 0 1 0 .026-.66c-.18 0-1.206-.33-1.404-1.592a1.165 1.165 0 0 1 .348-1.048 1.784 1.784 0 0 1 1.274-.509h2.096a.22.22 0 0 1 .163.069.22.22 0 0 1 .064.163.158.158 0 0 0 0 .03c0 .055.367 5.605-5.063 13.175a.333.333 0 1 0 .541.388c2.547-3.555 3.853-6.653 4.517-8.993l10.01 9.651a.33.33 0 0 0 .22.095H46.25a.333.333 0 0 0 .275-.518v-.002ZM26.493 28.847c1.464.024 8.988.22 13.263 1.761l-3.753 9.95-9.906-9.57c.178-.704.312-1.42.4-2.141h-.004Zm10.126 11.98 3.265-8.656 5.743 8.656H36.62Z" fill="#1256A6"/>
    <path opacity=".26" d="m46.525 40.974-6.163-9.276a.337.337 0 0 0-.251-.148l1.7-4.502a.333.333 0 1 0-.624-.235l-1.2 3.18c-4.378-1.588-11.812-1.787-13.428-1.81.028-.352.033-.704.016-1.055a.894.894 0 0 0-.894-.88h-2.105a2.447 2.447 0 0 0-1.75.708 1.835 1.835 0 0 0-.528 1.616c.244 1.563 1.5 2.133 2.034 2.153a.333.333 0 1 0 .026-.66c-.18 0-1.206-.33-1.404-1.592a1.165 1.165 0 0 1 .348-1.048 1.784 1.784 0 0 1 1.274-.509h2.096a.22.22 0 0 1 .163.069.22.22 0 0 1 .064.163.158.158 0 0 0 0 .03c0 .055.367 5.605-5.063 13.175a.333.333 0 1 0 .541.388c2.547-3.555 3.853-6.653 4.517-8.993l10.01 9.651a.33.33 0 0 0 .22.095H46.25a.333.333 0 0 0 .275-.518v-.002ZM26.493 28.847c1.464.024 8.988.22 13.263 1.761l-3.753 9.95-9.906-9.57c.178-.704.312-1.42.4-2.141h-.004Zm10.126 11.98 3.265-8.656 5.743 8.656H36.62Z" fill="#fff"/>
    <path d="M45.055 25.6h-5.202a.575.575 0 0 0-.575.575v.182c0 .318.258.575.575.575h5.202a.575.575 0 0 0 .574-.575v-.182a.575.575 0 0 0-.574-.575Z" fill="#FFD200"/>
    <path opacity=".08" d="M29.03 8.132s8.087 2.752 10.73 13.785l-3.273 1.429s-1.32-1.792-2.778-2.69c-1.457-.898-3.145-3.742-3.145-3.742l-1.535-8.782Z" fill="#000"/>
    <path d="M34.854 43.332a2.586 2.586 0 0 1-2.584-2.589 2.587 2.587 0 0 1 2.784-2.582l12.444.947a1.808 1.808 0 0 1-.048 3.605l-12.464.614-.132.005Zm0-4.773a2.184 2.184 0 1 0 .114 4.363l12.464-.614a1.4 1.4 0 0 0 .038-2.795l-12.447-.947a2.24 2.24 0 0 0-.171-.007h.002Z" fill="#24285B"/>
    <path d="M28.288 7.42c-3.056-2.563-7.573.712-6.017 4.38.031.07.064.14.097.22 1.63 3.425 7.018 8.764 7.018 8.764l-6.005 7.315 1.73 1.226 6.85-5.563a4.844 4.844 0 0 0 1.685-4.781c-.751-3.476-2.365-9.055-5.358-11.562Z" fill="#F4A28C"/>
    <path d="M23.38 28.092s-2.56 1.257-1.893 2.307 2.032 2.071 3.623-1.081l-1.73-1.226Z" fill="#24285B"/>
    <path d="M43.188 20.42s1.728 4.518-1.32 5.145c-1.927.394-4.342 2.096-5.858 3.302a3.351 3.351 0 0 0-1.253 3.027l.614 5.149-1.787.416-1.554-4.687a6.792 6.792 0 0 1 2.113-7.374l2.602-2.158 6.443-2.82Z" fill="#F4A28C"/>
    <path d="m36.487 23.348 6.7-2.928s2.69 4.795-2.22 5.656c0 0-3.666 1.514-4.35 2.641l-3.392-2.861c.885-1.07 2-1.928 3.262-2.508ZM35.552 41.826a.856.856 0 1 0 0-1.713.856.856 0 0 0 0 1.713Z" fill="#24285B"/>
    <path d="M33.636 37.342s-.06 1.464-1.217 1.937c-1.158.474-1.1 1.735.062 1.702 1.162-.033 3.489-2.272 3.489-2.272l-.617-1.69-1.717.323Z" fill="#1277F0"/>
    <path d="m36.256 38.619-3.323 2.21.713 1.072 3.323-2.21-.713-1.072Z" fill="#FFD200"/>
    <path d="M13.358 11.258H0v6.82h13.358v-6.82Z" fill="#E6E6E6"/>
    <path d="M4.865 14.056a1.334 1.334 0 1 0-2.472.694l1.151 1.864 1.134-1.856a1.34 1.34 0 0 0 .187-.702Zm-1.32.707a.66.66 0 1 1 0-1.32.66.66 0 0 1 0 1.32Z" fill="#A5A5A5"/>
    <path opacity=".58" d="M11.196 13.094H6.357v.964h4.839v-.964Z" fill="#A5A5A5"/>
    <path opacity=".23" d="M11.196 14.91H6.357v.964h4.839v-.964Z" fill="#A5A5A5"/>
    <path d="m11.77 23.123-4.486-2.349-1.37 2.616 4.486 2.348 1.37-2.615Z" fill="#FFD200"/>
</svg>
