<svg width="32" height="34" viewBox="0 0 32 34" fill="none" xmlns="http://www.w3.org/2000/svg">
<path fill-rule="evenodd" clip-rule="evenodd" d="M0 16.9961C0 16.3251 0.543886 15.7812 1.2148 15.7812H22.2714C22.9423 15.7812 23.4862 16.3251 23.4862 16.9961C23.4862 17.667 22.9423 18.2109 22.2714 18.2109H1.2148C0.543886 18.2109 0 17.667 0 16.9961Z" fill="#0777E8"/>
<path fill-rule="evenodd" clip-rule="evenodd" d="M14.933 8.0394C15.4074 7.56499 16.1765 7.56499 16.6509 8.0394L24.6351 16.0236C25.1728 16.5612 25.1728 17.4329 24.6351 17.9706L16.6509 25.9548C16.1765 26.4292 15.4074 26.4292 14.933 25.9548C14.4585 25.4803 14.4585 24.7112 14.933 24.2368L22.1726 16.9971L14.933 9.75739C14.4585 9.28298 14.4585 8.51381 14.933 8.0394Z" fill="#0777E8"/>
<path fill-rule="evenodd" clip-rule="evenodd" d="M21.5964 1.87887C21.5964 1.20795 22.1403 0.664062 22.8112 0.664062H30.208C30.9684 0.664062 31.5848 1.28047 31.5848 2.04084V31.952C31.5848 32.7123 30.9684 33.3288 30.208 33.3288H21.7314C21.0605 33.3288 20.5166 32.7849 20.5166 32.1139C20.5166 31.443 21.0605 30.8991 21.7314 30.8991H29.1552V3.09367H22.8112C22.1403 3.09367 21.5964 2.54978 21.5964 1.87887Z" fill="#0777E8"/>
</svg>
