<svg width="10" height="11" viewBox="0 0 10 11" fill="none" xmlns="http://www.w3.org/2000/svg">
<path d="M0.488871 2.7952C0.488871 2.20586 0.666538 1.73786 1.02187 1.39119C1.3772 1.03586 1.8322 0.858195 2.38687 0.858195C2.94154 0.858195 3.39654 1.03586 3.75187 1.39119C4.1072 1.73786 4.28487 2.20586 4.28487 2.7952C4.28487 3.3932 4.1072 3.86986 3.75187 4.2252C3.39654 4.57186 2.94154 4.74519 2.38687 4.74519C1.8322 4.74519 1.3772 4.57186 1.02187 4.2252C0.666538 3.86986 0.488871 3.3932 0.488871 2.7952ZM8.08087 1.0012L2.81587 10.0752H1.64587L6.91087 1.0012H8.08087ZM2.38687 1.58619C2.0922 1.58619 1.8582 1.69019 1.68487 1.8982C1.5202 2.09753 1.43787 2.39653 1.43787 2.7952C1.43787 3.19386 1.5202 3.4972 1.68487 3.7052C1.8582 3.9132 2.0922 4.0172 2.38687 4.0172C2.68154 4.0172 2.91554 3.9132 3.08887 3.7052C3.2622 3.48853 3.34887 3.18519 3.34887 2.7952C3.34887 2.39653 3.2622 2.09753 3.08887 1.8982C2.91554 1.69019 2.68154 1.58619 2.38687 1.58619ZM5.46787 8.2812C5.46787 7.6832 5.64554 7.21086 6.00087 6.8642C6.3562 6.50886 6.8112 6.3312 7.36587 6.3312C7.92054 6.3312 8.3712 6.50886 8.71787 6.8642C9.0732 7.21086 9.25087 7.6832 9.25087 8.2812C9.25087 8.87053 9.0732 9.34286 8.71787 9.6982C8.3712 10.0535 7.92054 10.2312 7.36587 10.2312C6.8112 10.2312 6.3562 10.0579 6.00087 9.7112C5.64554 9.35586 5.46787 8.8792 5.46787 8.2812ZM7.35287 7.0722C7.0582 7.0722 6.8242 7.1762 6.65087 7.3842C6.47754 7.58353 6.39087 7.88253 6.39087 8.2812C6.39087 8.6712 6.47754 8.9702 6.65087 9.1782C6.8242 9.37753 7.0582 9.4772 7.35287 9.4772C7.64754 9.4772 7.88154 9.37753 8.05487 9.1782C8.2282 8.9702 8.31487 8.6712 8.31487 8.2812C8.31487 7.88253 8.2282 7.58353 8.05487 7.3842C7.88154 7.1762 7.64754 7.0722 7.35287 7.0722Z" fill="#3F4254"/>
</svg>
