<svg width="18" height="18" viewBox="0 0 18 18" fill="none" xmlns="http://www.w3.org/2000/svg">
<path d="M17.9995 3.31066C17.9944 2.85939 17.8983 2.41378 17.717 2.00052C17.5356 1.58726 17.2728 1.21483 16.9441 0.905548C15.6319 -0.339185 13.5024 -0.29232 12.1995 1.01146L10.3886 2.83263C9.96099 2.44285 9.39957 2.23286 8.82108 2.2463C8.2426 2.25974 7.69154 2.49558 7.28244 2.90481L6.43887 3.74838C6.29944 3.88766 6.18882 4.05305 6.11335 4.23511C6.03788 4.41717 5.99903 4.61232 5.99903 4.8094C5.99903 5.00648 6.03788 5.20163 6.11335 5.38369C6.18882 5.56574 6.29944 5.73114 6.43887 5.87042L6.62633 6.06351L1.8461 10.8437C1.38598 11.3003 1.05293 11.8689 0.879834 12.4936C0.706742 13.1182 0.699605 13.7772 0.859128 14.4055L0.109289 16.131C0.00452624 16.368 -0.025847 16.6311 0.0221866 16.8857C0.0702201 17.1402 0.194397 17.3742 0.378294 17.5567C0.590591 17.771 0.862939 17.9159 1.15933 17.9721C1.45572 18.0283 1.7622 17.9933 2.03825 17.8716L3.68134 17.1546C4.29815 17.2939 4.94024 17.2746 5.54755 17.0984C6.15487 16.9221 6.70758 16.5948 7.15403 16.147L11.9343 11.3667L12.1273 11.5598C12.4086 11.8409 12.7899 11.9987 13.1874 11.9987C13.585 11.9987 13.9663 11.8409 14.2475 11.5598L15.0911 10.7163C15.501 10.3066 15.737 9.75458 15.75 9.1752C15.7629 8.59582 15.5517 8.03381 15.1604 7.6063L17.0116 5.74389C17.3316 5.42573 17.5841 5.04621 17.7539 4.62808C17.9236 4.20996 18.0072 3.76186 17.9995 3.31066ZM6.09582 15.0925C5.80726 15.3817 5.44541 15.5868 5.0491 15.6859C4.65279 15.7849 4.23698 15.7742 3.8463 15.6549C3.675 15.6021 3.49045 15.6124 3.3261 15.6839L1.62959 16.4244L2.34662 14.756C2.42102 14.5855 2.42937 14.3934 2.37005 14.2171C2.20832 13.7397 2.21163 13.2218 2.37943 12.7464H8.43907L6.09582 15.0925ZM9.93874 11.2496H3.57167L7.69579 7.12546L10.877 10.3123L9.93874 11.2496ZM15.9543 4.68849L13.5764 7.08047C13.4359 7.22108 13.357 7.41173 13.357 7.61052C13.357 7.8093 13.4359 7.99995 13.5764 8.14056L14.0347 8.59796C14.1045 8.6676 14.1598 8.7503 14.1975 8.84133C14.2352 8.93236 14.2547 9.02993 14.2547 9.12847C14.2547 9.22701 14.2352 9.32459 14.1975 9.41562C14.1598 9.50665 14.1045 9.58934 14.0347 9.65898L13.1912 10.5026L7.50177 4.80659L8.34534 3.96302C8.48594 3.8225 8.67659 3.74357 8.87538 3.74357C9.07416 3.74357 9.26481 3.8225 9.40542 3.96302L9.86376 4.42136C10.0043 4.56171 10.1947 4.64059 10.3933 4.64068C10.492 4.64052 10.5896 4.62089 10.6806 4.58293C10.7717 4.54498 10.8543 4.48943 10.9238 4.41948L13.2615 2.0678C13.9935 1.33483 15.1829 1.30109 15.9131 1.99188C16.0955 2.16415 16.2414 2.37128 16.3423 2.60099C16.4431 2.8307 16.4969 3.07832 16.5003 3.32917C16.5037 3.58003 16.4567 3.82901 16.3621 4.06138C16.2675 4.29375 16.1273 4.50476 15.9496 4.68193L15.9543 4.68849Z" fill="#6E6E6E"/>
</svg>
