<svg width="69" height="49" fill="none" xmlns="http://www.w3.org/2000/svg">
    <path opacity=".45" d="M34.5 49c18.944 0 34.3-1.268 34.3-2.832 0-1.564-15.356-2.832-34.3-2.832-18.943 0-34.3 1.268-34.3 2.832 0 1.564 15.357 2.831 34.3 2.831Z" fill="#E6E6E6"/>
    <path opacity=".79" d="M27.237 24.766h-13.08v21.076h13.08V24.766Z" fill="#A5A5A5"/>
    <path d="M31.18 24.766H19.865v21.076H31.18V24.766Z" fill="#E6E6E6"/>
    <path d="M33.186 37.133H21.657v5.748h11.529v-5.748Z" fill="#F2F2F2"/>
    <path d="M27.594 40.585c.44 0 .797-.36.797-.806a.802.802 0 0 0-.797-.806c-.44 0-.797.36-.797.806 0 .445.357.806.797.806Z" fill="#A5A5A5"/>
    <path opacity=".58" d="M11.964 42.87s-2.314-.628-2.825-2.8c0 0 3.578-.75 3.694 2.993l-.87-.192Z" fill="#68E1FD"/>
    <path opacity=".73" d="M12.245 42.639s-1.624-2.566-.212-4.994c0 0 2.73 1.737 1.533 4.994h-1.321Z" fill="#68E1FD"/>
    <path d="M12.661 42.638s.846-2.731 3.42-3.257c0 0 .49 1.768-1.656 3.257H12.66Z" fill="#68E1FD"/>
    <path d="m10.986 42.584.48 3.237h2.952l.421-3.237h-3.853Z" fill="#24285B"/>
    <path opacity=".79" d="M27.237 24.766h-13.08v21.076h13.08V24.766Z" fill="#A5A5A5"/>
    <path d="M31.18 24.766H19.865v21.076H31.18V24.766Z" fill="#E6E6E6"/>
    <path d="M33.186 37.133H21.657v5.748h11.529v-5.748Z" fill="#F2F2F2"/>
    <path d="M27.594 40.585c.44 0 .797-.36.797-.806a.802.802 0 0 0-.797-.806c-.44 0-.797.36-.797.806 0 .445.357.806.797.806Z" fill="#A5A5A5"/>
    <path opacity=".79" d="M32.921 28.566H21.393v5.749H32.92v-5.749Z" fill="#A5A5A5"/>
    <path d="M35.331 28.566H23.803v5.749H35.33v-5.749Z" fill="#F2F2F2"/>
    <path d="M29.739 32.018c.44 0 .797-.36.797-.806a.802.802 0 0 0-.797-.806c-.44 0-.798.36-.798.806 0 .445.357.806.798.806Z" fill="#A5A5A5"/>
    <path opacity=".58" d="M11.964 42.87s-2.314-.628-2.825-2.8c0 0 3.578-.75 3.694 2.993l-.87-.192Z" fill="#769DCB"/>
    <path opacity=".73" d="M12.245 42.639s-1.624-2.566-.212-4.994c0 0 2.73 1.737 1.533 4.994h-1.321Z" fill="#5284BE"/>
    <path d="M12.661 42.638s.846-2.731 3.42-3.257c0 0 .49 1.768-1.656 3.257H12.66Z" fill="#1256A6"/>
    <path d="m10.986 42.584.48 3.237h2.952l.421-3.237h-3.853Z" fill="#24285B"/>
    <path d="M52.311 44.65s.455.74 1.182.642c.727-.098 1.057.574.461.896-.596.323-2.438-.151-2.438-.151l-.222-1.34 1.017-.046ZM39.996 44.65s-.454.74-1.181.642c-.728-.098-1.058.574-.462.896.597.323 2.439-.151 2.439-.151l.211-1.34-1.007-.046Z" fill="#1277F0"/>
    <path d="M48.327 8.896s4 .945 4.864 5.301c.862 4.357.92 8.189 3.268 8.322 2.35.132 4.05-8.982 4.05-8.982l1.761.462s-1.825 19.81-11.357 10.564c-9.532-9.245-2.586-15.667-2.586-15.667Z" fill="#164D97"/>
    <path opacity=".46" d="M48.327 8.896s4 .945 4.864 5.301c.862 4.357.92 8.189 3.268 8.322 2.35.132 4.05-8.982 4.05-8.982l1.761.462s-1.825 19.81-11.357 10.564c-9.532-9.245-2.586-15.667-2.586-15.667Z" fill="#fff" fill-opacity=".1"/>
    <path d="M33.779 27.275H22.282v1.29H33.78v-1.29Z" fill="#FFD200"/>
    <path opacity=".08" d="M33.779 27.275H22.282v1.29H33.78v-1.29Z" fill="#000"/>
    <path d="M44.508 2.606s.28 1.36.157 2.3a.7.7 0 0 1-.265.464.683.683 0 0 1-.511.136c-.47-.069-1.081-.3-1.318-1.01l-.55-1.155a1.26 1.26 0 0 1 .385-1.385c.702-.653 1.973-.186 2.102.65Z" fill="#F4A28C"/>
    <path d="M34.662 27.275H23.165v1.29h11.497v-1.29Z" fill="#FFD200"/>
    <path d="m42.121 3.55-.178 4.546 2.483-.081-.867-3.275-1.438-1.19Z" fill="#F4A28C"/>
    <path d="M44.176 2.693c-.42.067-.845.085-1.269.053a1.164 1.164 0 0 1 .148 1.262.936.936 0 0 1-.447.449.92.92 0 0 1-.627.058l-.184-1.773a1.43 1.43 0 0 1 .556-1.332 4.74 4.74 0 0 1 .552-.36c.48-.265 1.258-.013 1.669-.412a.33.33 0 0 1 .547.156c.142.528.146 1.388-.539 1.768-.127.067-.264.11-.406.13Z" fill="#24285B"/>
    <path d="M43.197 3.96s-.072-.529-.46-.44c-.39.087-.29.855.253.855l.207-.415ZM44.632 3.469l.442.485a.215.215 0 0 1-.096.364l-.51.16.164-1.01Z" fill="#F4A28C"/>
    <path opacity=".31" d="M43.785 5.449a1.62 1.62 0 0 1-.845-.385s.133.821 1.124 1.529l-.279-1.144Z" fill="#CE8172"/>
    <path d="m41.943 8.095 2.476-.081s6.657.107 7.071 5.013c.415 4.905-2.425 8.733-1.48 12.561l-9.031 1.168s-14.8-15.045.964-18.661Z" fill="#145DB4"/>
    <path opacity=".08" d="M40.76 11.406s3.055 2.474 1.023 6.907c-2.032 4.434-.778 5.843 2.267 5.024 3.045-.82 4.277-4.151 4.277-4.151l1.498 4.679c-.015.577.05 1.152.192 1.71l-9.031 1.169-.328-.347-4.09-5.817 4.191-9.174Z" fill="#000"/>
    <path d="m53.6 15.21-6.613-1.095-1.463 9.046 6.613 1.094 1.463-9.046Z" fill="#FFD200"/>
    <path opacity=".08" d="M50.905 19.862s1.057 1.2.186 2.038c-.87.838-2.08 1.837-2.08 1.837l-3.03-.526 4.924-3.35Z" fill="#000"/>
    <path d="m51.7 14.307-2.676-.443-.228 1.41 2.676.443.228-1.41Z" fill="#24285B"/>
    <path d="M41.037 14.735c1.533-2.994-2.051-5.988-4.699-3.948-1.39 1.07-2.698 2.632-3.115 4.811-1.004 5.263-.422 9.99 3.136 11.367 3.559 1.377 12.831-5.453 12.831-5.453l-1.184-1.974s-8.103 5.862-10.054 1.854c-1.229-2.513 1.759-4.074 3.085-6.657Z" fill="#1277F0"/>
    <path opacity=".46" d="M41.037 14.735c1.533-2.994-2.051-5.988-4.699-3.948-1.39 1.07-2.698 2.632-3.115 4.811-1.004 5.263-.422 9.99 3.136 11.367 3.559 1.377 12.831-5.453 12.831-5.453l-1.184-1.974s-8.103 5.862-10.054 1.854c-1.229-2.513 1.759-4.074 3.085-6.657Z" fill="#fff" fill-opacity=".2"/>
    <path d="M48.327 20.083s1.189-1.248 2.297-.622c1.108.627-1.434 2.062-1.434 2.062l-.863-1.44Z" fill="#F4A28C"/>
    <path d="m40.985 26.757-1.71 17.964 1.738-.011s2.704-13.34 5.721-15.077c3.018-1.736 3.282-4.035 3.282-4.035l-9.03 1.159Z" fill="#24285B"/>
    <path d="m50.017 25.589 2.928 19.12h-1.651s-2.409-12.313-6.817-15.196l5.54-3.924Z" fill="#24285B"/>
    <path d="M60.8 13.616s-.202-2.123.974-1.984c1.176.139.488 2.37.488 2.37l-1.463-.386Z" fill="#F4A28C"/>
    <path d="m59.839 7.831-1.167.759 2.183 3.434 1.167-.758L59.84 7.83Z" fill="#FFD200"/>
    <path opacity=".08" d="m59.839 7.831-1.167.759 2.183 3.434 1.167-.758L59.84 7.83Z" fill="#000"/>
    <path d="m61.75 9.743-1.792 1.178 2.83 4.407 1.793-1.178-2.83-4.407Z" fill="#24285B"/>
    <path d="M54.519.743a4.596 4.596 0 0 0-1.705 2.046 4.657 4.657 0 0 0-.294 2.659 4.626 4.626 0 0 0 1.216 2.376 4.543 4.543 0 0 0 2.316 1.292c.882.19 1.8.111 2.636-.227a4.567 4.567 0 0 0 2.067-1.67A4.645 4.645 0 0 0 59.582.811 4.53 4.53 0 0 0 56.17.077c-.588.11-1.15.337-1.651.666Zm4.229 6.596a3.192 3.192 0 0 1-3.575-.05 3.249 3.249 0 0 1-1.166-1.476 3.29 3.29 0 0 1-.159-1.882c.133-.63.447-1.206.903-1.655a3.185 3.185 0 0 1 3.516-.659 3.228 3.228 0 0 1 1.428 1.218 3.274 3.274 0 0 1 .452 2.45 3.272 3.272 0 0 1-.495 1.167c-.24.352-.545.654-.9.887h-.004Z" fill="#FFD200"/>
    <path d="m55.758 4.878 1.004 1.189 1.428-2.568" stroke="#145DB4" stroke-linecap="round" stroke-linejoin="round"/>
    <path d="M11.724 5.094H8.647v3.111h3.077V5.094ZM11.724 11.027H8.647v3.112h3.077v-3.112Z" fill="#A5A5A5"/>
    <path d="m9.66 6.499.318.712 1.039-1.033M9.66 12.452l.318.712 1.039-1.033" stroke="#fff" stroke-width=".5" stroke-linecap="round" stroke-linejoin="round"/>
    <path opacity=".19" d="M23.198 5.683H13.084v1.674h10.114V5.683Z" fill="#A5A5A5"/>
    <path opacity=".18" d="M23.198 11.557H13.084v1.674h10.114v-1.674Z" fill="#A5A5A5"/>
</svg>
