<svg width="63" height="40" fill="none" xmlns="http://www.w3.org/2000/svg">
    <path opacity=".3" d="M13.524 2.216C6.951 3.992 1.761 8.156.941 15.818c-.69 6.458.285 17.86 11.355 19.727 21.542 3.627 39.159 4.818 47.083-5.119 4.898-6.14 6.41-23.328-5.774-27.51-8.263-2.827-25.98-4.51-40.08-.7Z" fill="#E6E6E6"/>
    <path d="M54.35 5.283H7.815v24.593h46.537V5.283Z" fill="#E6E6E6"/>
    <g opacity=".12" fill="#000">
        <path d="M49.549 19.697h2.38V15.44h-2.38v4.257ZM45.669 19.697h2.38v-5.812h-2.38v5.812ZM41.788 19.697h2.38v-8.308h-2.38v8.308ZM37.907 19.697h2.381V9.122h-2.381v10.575Z"/>
    </g>
    <path opacity=".08" d="M13.058 24.901v-3.747s1.85 2.282 2.667 2.11c.818-.172 2.11-3.1 3.013-3.315.903-.215.99 1.55 1.81 1.292.82-.257 3.787-5.295 4.992-5.382 1.205-.087 2.11 2.798 3.27 2.325 1.161-.473 4.478-6.543 6.113-7.403V24.9l-21.865.002Z" fill="#000"/>
    <path d="M36.43 26.214H11.918V7.49h.388v18.338H36.43v.387ZM54.36 17.378v12.494h-7.069c-.207-1.83-2.685-2.342-6.234-2.634-4.013-.334-3.966-7.463-4.512-9.366-.547-1.902 1.102-1.709 1.102-1.709s1.162 5.508 3.727 6.85c2.566 1.34 2.188-1.55 2.963-5.523.775-3.971 6.587-2.642 6.587-2.642l.26-2.325s-1.014-.91-1.025-2.19c-.012-1.278.58-1.22.58-1.22l1.512.682.343 2.488 1.767 5.095Z" fill="#000" opacity=".08"/>
    <path d="M38.507 17.299s.095-1.562-.907-1.953c-1.001-.392 0 2.448 0 2.448l.907-.495Z" fill="#F4A28C"/>
    <path d="M50.075 15.29a1.936 1.936 0 0 0-2.906-.025 7.66 7.66 0 0 0-1.986 5.037c-.13 4.322-3.183 3.894-6.357-3.181l-1.536.838s4.204 13.977 10.627 6.051c3.925-4.822 3.264-7.422 2.158-8.72Z" fill="#1277F0"/>
    <path opacity=".08" d="M49.41 14.677a1.37 1.37 0 0 0-1.732.085 7.616 7.616 0 0 0-2.491 5.541c-.13 4.323-3.183 3.895-6.357-3.18l-1.536.838s4.204 13.977 10.627 6.05c4.667-5.763 2.838-8.348 1.49-9.334Z" fill="#000"/>
    <path d="M51.315 9.896a6.294 6.294 0 0 0 0 1.691.512.512 0 0 0 .606.388 1.128 1.128 0 0 0 .92-.81l.357-.86a.912.912 0 0 0-.358-.993c-.562-.445-1.475-.034-1.525.584Z" fill="#F4A28C"/>
    <path d="m53.13 10.456.378 3.315-1.84.077.463-2.443 1-.95Z" fill="#F4A28C"/>
    <path d="M51.565 9.95c.314.026.63.015.94-.031a.846.846 0 0 0-.04.93.69.69 0 0 0 .82.312l.044-1.306a1.038 1.038 0 0 0-.485-.947 3.607 3.607 0 0 0-.428-.233c-.368-.166-.93.06-1.257-.209a.244.244 0 0 0-.388.143c-.075.388-.033 1.023.496 1.265.095.04.196.066.298.076Z" fill="#24285B"/>
    <path d="M52.357 10.814s.024-.387.318-.348c.295.038.26.61-.143.645l-.175-.297ZM51.261 10.537l-.3.388a.164.164 0 0 0 .019.222c.02.018.045.031.072.037l.388.091-.179-.738Z" fill="#F4A28C"/>
    <path opacity=".31" d="M52.007 11.936c.231-.048.443-.162.61-.33 0 0-.052.609-.748 1.182l.138-.852Z" fill="#CE8172"/>
    <path d="M49.767 13.81s6.841-1.533 9.3-.158c2.459 1.376-2.36 14.322-2.36 14.322l-7.556-.24s-6.608-12.61.616-13.925Z" fill="#1277F0"/>
    <path opacity=".08" d="M55.717 14.852s-2.16 1.4-1.062 4.599c1.099 3.199 1.28 5.49-1.315 4.689-2.597-.803-2.407-4.383-2.407-4.383l-2.656.409-.255 5.082 1.123 2.485 6.572-.412 2.673-.682.989-3.354-1.816-5.678-1.846-2.755Z" fill="#000"/>
    <path d="M52.013 34.342c.035-2.143.316-4.171 1.201-4.65 1.004-.554 1.612 1.959 1.97 4.65h1.81v-7.1l-7.849.5 1.031 6.607 1.837-.007Z" fill="#24285B"/>
    <path d="M57.04 13.244s4.263-.715 4.263 5.98c0 6.696-1.023 12.66-10.85 6.685l.748-1.14s5.29 2.325 6.415.283c1.125-2.042-4.418-10.679-.576-11.808Z" fill="#3B8FF3"/>
    <path opacity=".46" d="M57.04 13.244s4.263-.715 4.263 5.98c0 6.696-1.023 12.66-10.85 6.685l.748-1.14s5.29 2.325 6.415.283c1.125-2.042-4.418-10.679-.576-11.808Z" fill="#fff" fill-opacity=".2"/>
    <path d="m49.26 19.203-3.603.907 1.357 5.394 3.604-.906-1.357-5.395Z" fill="#FFD200"/>
    <path d="M51.199 24.77s-1.773-1.405-2.054-.332c-.28 1.074 1.562 1.081 1.562 1.081l.492-.75Z" fill="#F4A28C"/>
    <path opacity=".08" d="M28.929 9.125h-4.315v.726h4.315v-.726ZM28.929 11.041h-4.315v.726h4.315v-.726Z" fill="#000"/>
    <path opacity=".46" d="M23.272 9.125h-1.273v.726h1.273v-.726Z" fill="#fff"/>
    <path d="M23.272 11.041h-1.273v.726h1.273v-.726Z" fill="#145DB4"/>
    <path opacity=".46" d="M20.443 10.783a2.807 2.807 0 1 1-.06-.57 2.808 2.808 0 0 1 .06.57Z" fill="#fff"/>
    <path d="M17.644 7.98v2.8l2.741-.57s-.384-2.244-2.741-2.23Z" fill="#145DB4"/>
    <path opacity=".1" d="M20.443 10.783a2.8 2.8 0 0 1-4.355 2.325l1.55-2.325 2.74-.57c.015.074.026.152.038.227.016.114.025.228.027.343Z" fill="#000"/>
    <path opacity=".08" d="M17.792 15.38c.084 0 .109.027.109.11v.179a.806.806 0 0 1 .668.498c.045.087.027.134-.071.178l-.177.082c-.083.038-.122.02-.17-.064a.455.455 0 0 0-.465-.277c-.308 0-.448.095-.446.3a.27.27 0 0 0 .25.24c.086.02.174.033.262.039.164.007.326.038.482.09a.65.65 0 0 1 .213.115.698.698 0 0 1 .194.506c0 .387-.26.662-.726.734v.194c0 .081-.026.112-.109.112h-.194c-.083 0-.112-.027-.112-.11v-.184a.826.826 0 0 1-.727-.552.12.12 0 0 1 .082-.169l.178-.066c.09-.033.13-.011.17.08a.473.473 0 0 0 .49.3c.334 0 .498-.109.498-.322a.222.222 0 0 0-.158-.223 1.181 1.181 0 0 0-.359-.067 1.573 1.573 0 0 1-.484-.101.703.703 0 0 1-.211-.118.656.656 0 0 1-.194-.49c0-.388.24-.653.703-.72V15.5c0-.084.027-.113.11-.113l.194-.006Z" fill="#000"/>
    <path d="M59.913 32.373H2.07v2.099h57.843v-2.099Z" fill="#E6E6E6"/>
    <path d="M59.913 34.375H2.07v4.754h57.843v-4.754Z" fill="#C9C9C9"/>
    <path opacity=".08" d="M10.454 32.438s-1.938 4.98-6.521 6.69h29.73l-.594-2.734-19.405-4.02-3.21.063Z" fill="#000"/>
    <path d="M16.161 23.5s3.1 2.325 4.421 5.585a2.666 2.666 0 0 1-2.443 3.682l-3.634.025L16.16 23.5ZM12.556 20.364l-.28 1.623-1.461.107.889-2.598.852.868Z" fill="#F4A28C"/>
    <path d="M12.044 17.963a.968.968 0 0 1 1.55.525c.194.744.336 1.833-.528 1.922-1.32.136-1.55-1.567-1.55-1.567a1.78 1.78 0 0 1 .528-.88Z" fill="#F4A28C"/>
    <path d="M12.298 19.19s-.136-.342-.407-.107c-.271.234.09.612.302.533.211-.08.105-.427.105-.427Z" fill="#F4A28C"/>
    <path d="M6.924 22.88s3.522-1.955 6.655-.787c5.703 2.132 5.39 5.95 1.385 16.906l-5.252.03L6.924 22.88Z" fill="#1277F0"/>
    <path opacity=".08" d="M12.32 21.78s-.34.835.244 3.26c.583 2.426 3.605 10.557 3.605 10.557L14.972 39H13.06L7.18 22.75s2.656-1.377 5.14-.97Z" fill="#000"/>
    <path d="M13.511 39.028s1.08-14.991-5.32-16.148-8.524 4.342-4.785 16.148H13.51Z" fill="#FFD200"/>
    <path d="M11.947 39.028S13.028 24.037 6.63 22.88C.23 21.723-1.895 27.222 1.842 39.028h10.105Z" fill="#FFD200"/>
    <path opacity=".08" d="M11.947 39.028S13.028 24.037 6.63 22.88C.23 21.723-1.895 27.222 1.842 39.028h10.105Z" fill="#000"/>
    <path d="M10.483 21.154a2.13 2.13 0 0 0 .335-1.97c-.16-.508-.15-1.163.426-1.841 1.277-1.513 3.1-.446 2.496.415-.605.86-.936 1.25-.936 1.25s2.203 2.324 1.054 3.727c-1.021 1.25-5.194.719-3.375-1.581Z" fill="#24285B"/>
    <path d="m30.366 20.364-.281 1.623-1.461.107.89-2.598.852.868Z" fill="#F4A28C"/>
    <path d="M29.855 17.963a.968.968 0 0 1 1.55.525c.194.744.333 1.833-.529 1.922-1.32.136-1.55-1.567-1.55-1.567a1.78 1.78 0 0 1 .53-.88Z" fill="#F4A28C"/>
    <path d="M30.108 19.19s-.135-.342-.407-.107c-.27.234.091.612.303.533.21-.08.104-.427.104-.427Z" fill="#F4A28C"/>
    <path d="M30.438 18.905s-.277 1.743-1.124 1.176c-.846-.568-.017-.944-.11-1.839s.387-1.21 1.368-1.422c.453-.097.73-.107.93-.178a.547.547 0 0 1 .746.548c-.072.69-.477 1.445-1.81 1.715Z" fill="#24285B"/>
    <path d="M24.734 22.88s3.523-1.955 6.655-.787c5.704 2.132 5.37 6.084 1.357 17.05l-5.121-.041-2.89-16.222Z" fill="#1277F0"/>
    <path opacity=".08" d="M30.143 21.855s-.337.833.246 3.259c.583 2.425 3.604 10.557 3.604 10.557l-1.198 3.404h-1.91L25.01 22.824s2.648-1.378 5.132-.969Z" fill="#000"/>
    <path d="M31.389 39.133S32.399 24.037 26 22.88c-6.397-1.157-8.525 4.342-4.788 16.148l10.176.105Z" fill="#FFD200"/>
    <path d="M29.756 39.028s1.079-14.991-5.32-16.148c-6.4-1.156-8.372 4.52-4.631 16.329l9.95-.18Z" fill="#FFD200"/>
    <path opacity=".08" d="M29.756 39.116s1.088-15.08-5.31-16.236c-6.4-1.156-8.372 4.52-4.631 16.329l9.94-.093Z" fill="#000"/>
    <path d="M30.872 25.899c.108-2.058 2.722-2.89 4.014-1.285 1 1.24 1.688 3.067 1.608 5.76a11.801 11.801 0 0 0 3.518 8.76h-3.731s-3.17-3.748-4.892-9.663c-.434-1.491-.566-2.66-.517-3.572Z" fill="#3B8FF3"/>
</svg>
