<svg width="59" height="56" fill="none" xmlns="http://www.w3.org/2000/svg">
    <path d="M40.275 21.67h17.34V0h-17.34v21.67Z" fill="#E6E6E6"/>
    <path opacity=".2" d="M41.014 4.543s3.17-.298 3.242 2.392c0 0-.226 4.87 1.841 7.136 2.067 2.267 7.245-2.813 8.688 7.609h-5.113l-7.019-5.4-2.01-7.467.37-4.27Z" fill="#A5A5A5"/>
    <path d="M51.955 12.223c1.824 0 3.303-1.462 3.303-3.265 0-1.803-1.479-3.265-3.303-3.265-1.825 0-3.304 1.462-3.304 3.265 0 1.803 1.48 3.265 3.304 3.265Z" fill="#fff"/>
    <path d="m50.5 8.638.901 1.377 1.73-2.115" stroke="#A5A5A5" stroke-linecap="round" stroke-linejoin="round"/>
    <path opacity=".4" d="M48.329 3.652h6.6V2.054h-6.6v1.598Z" fill="#A5A5A5"/>
    <path d="M20.574.002H3.235v21.671h17.34V.003Z" fill="#E6E6E6"/>
    <path opacity=".2" d="M19.834 4.549s-3.17-.298-3.24 2.39c0 0 .226 4.871-1.84 7.136-2.068 2.265-7.246-2.81-8.689 7.608h5.113l7.019-5.397 2.022-7.47-.385-4.267Z" fill="#A5A5A5"/>
    <path d="M24.008 13.768s2.7 3.165 3.833 5.067c1.132 1.902 5.08 2.376 7.666-2.42 1.536-2.848 1.905-4.363 3.198-3.45 1.292.913-1.662 4.775-1.662 4.775s-1.31 8.896-13.035 6.172c-15.236-3.538 0-10.144 0-10.144Z" fill="#D88B7C"/>
    <path opacity=".45" d="M29.5 55.662c16.292 0 29.5-1.877 29.5-4.191 0-2.315-13.208-4.192-29.5-4.192S0 49.156 0 51.471c0 2.314 13.208 4.191 29.5 4.191Z" fill="#E6E6E6"/>
    <path d="M47.312 14.511c1.384 5.147 3.231 18.498-15.607 16.911v-1.846s8.604-1.287 9.736-4.979c.96-3.133-1.888-11.386 2.264-12.328 1.596-.358 3.184.676 3.607 2.242Z" fill="#14478B"/>
    <path opacity=".08" d="M47.312 14.511c1.384 5.147 3.231 18.498-15.607 16.911v-1.846s8.604-1.287 9.736-4.979c.96-3.133-1.888-11.386 2.264-12.328 1.596-.358 3.184.676 3.607 2.242Z" fill="#000"/>
    <path d="M22.936 5.85s.152 1.72-.14 2.863a.863.863 0 0 1-.405.532.885.885 0 0 1-.666.093c-.582-.155-1.322-.528-1.515-1.441l-.523-1.509a1.531 1.531 0 0 1 .079-.936c.123-.297.337-.548.612-.72.973-.7 2.517.065 2.558 1.117Z" fill="#F4A28C"/>
    <path d="m19.944 6.788-1.99 4.337 2.59 1.9.517-4.08-1.117-2.157Z" fill="#F4A28C"/>
    <path d="M22.501 5.922c-.54.02-1.08-.02-1.61-.123a1.426 1.426 0 0 1 0 1.58c-.147.23-.37.403-.631.488a1.2 1.2 0 0 1-.802-.02l.03-2.218a1.739 1.739 0 0 1 .233-.907c.16-.276.392-.504.672-.66.242-.136.492-.257.75-.362.645-.255 1.584.17 2.17-.262a.424.424 0 0 1 .669.273c.1.672-.02 1.737-.944 2.106-.172.064-.353.1-.537.105Z" fill="#24285B"/>
    <path d="M21.078 7.326s0-.671-.517-.613c-.516.058-.493 1.012.193 1.101l.324-.488ZM22.973 6.938l.486.671a.274.274 0 0 1-.174.434l-.668.126.356-1.231Z" fill="#F4A28C"/>
    <path opacity=".31" d="M21.049 9.06a2.121 2.121 0 0 1-.795-.814s-.62 1.076.648 1.978l.147-1.164Z" fill="#CE8172"/>
    <path d="M37.621 6.393s-.151 1.72.14 2.864a.86.86 0 0 0 .405.533.883.883 0 0 0 .667.092c.582-.155 1.32-.528 1.514-1.441l.523-1.506c.073-.313.045-.64-.079-.937a1.557 1.557 0 0 0-.611-.72c-.985-.7-2.527.061-2.559 1.115Z" fill="#F4A28C"/>
    <path d="m40.61 7.328 1.99 4.336-2.59 1.9-.518-4.08 1.119-2.156Z" fill="#F4A28C"/>
    <path d="M39.477 7.872s.013-.672.518-.616c.505.056.494 1.014-.195 1.103l-.323-.487ZM37.58 7.481l-.484.672a.274.274 0 0 0 .175.434l.668.123-.358-1.229Z" fill="#F4A28C"/>
    <path opacity=".31" d="M39.508 9.601a2.14 2.14 0 0 0 .794-.81s.62 1.076-.647 1.978l-.147-1.168Z" fill="#CE8172"/>
    <path d="m27.675 18.567-1.796 5.7-3.656-.578 1.632-10.122s2.704 2.896 3.82 5Z" fill="#164D97"/>
    <path opacity=".08" d="m27.675 18.567-1.796 5.7-3.656-.578 1.632-10.122s2.704 2.896 3.82 5Z" fill="#000"/>
    <path d="M50.505 31.636 48.57 50.16h-2l-1.537-14.523-3.527-2.65 8.998-1.35Z" fill="#24285B"/>
    <path d="M41.507 32.988v17.186h2.346l2.153-15.138-4.5-2.048Z" fill="#24285B"/>
    <path d="M22.8 12.454a7.006 7.006 0 0 0-4.165-1.44c-2.443 0-6.536 1.81-7.39 7.87-.853 6.06.025 12.755.025 12.755l8.998 1.342s9.915-14.151 2.531-20.527Z" fill="#1256A6"/>
    <path opacity=".08" d="m21.078 31.675-.815 1.315-8.998-1.342s-1.811-13.062 2.067-17.37l3.08 4.646 4.666 12.75Z" fill="#000"/>
    <path d="M38.704 12.964a6.999 6.999 0 0 1 4.157-1.499c2.445-.024 6.566 1.716 7.508 7.76.941 6.045.163 12.756.163 12.756l-8.98 1.481S31.42 19.436 38.704 12.964Z" fill="#145DB4"/>
    <path d="M12.935 15.91c-.98 5.23-1.784 18.687 16.873 15.677l-.143-1.841s-8.679-.63-10.094-4.225c-1.2-3.046.999-11.498-3.201-12.127-1.63-.223-3.134.918-3.435 2.515Z" fill="#F4A28C"/>
    <path d="M12.499 15.96a12.722 12.722 0 0 0 .077 5.715l6.566-.056s1.078-6.66-1.775-8.37c0 0-.68-.581-2.038-.24a3.937 3.937 0 0 0-1.837 1.08 3.867 3.867 0 0 0-.993 1.87Z" fill="#1277F0"/>
    <path opacity=".2" d="M12.499 15.96a12.722 12.722 0 0 0 .077 5.715l6.566-.056s1.078-6.66-1.775-8.37c0 0-.68-.581-2.038-.24a3.937 3.937 0 0 0-1.837 1.08 3.867 3.867 0 0 0-.993 1.87Z" fill="#fff"/>
    <path d="M19.525 50.177s.197.911.983 1.083c.786.173.888.967.147 1.072-.74.105-2.459-1.047-2.459-1.047l.206-1.119 1.123.011ZM8.613 50.177s-.2.911-.983 1.083c-.783.173-.89.967-.147 1.072.743.105 2.459-1.047 2.459-1.047l-.206-1.119-1.123.011Z" fill="#1277F0"/>
    <path opacity=".08" d="M41.955 16.94s-1.017 3.594 2.312 6.335c3.328 2.741 2.737 7.58-3.648 8.77l.933 1.412 9.6-1.62.453-6.64-3.442-6.845-6.208-1.412Z" fill="#000"/>
    <path d="m29.922 29.167-1.203.092.197 2.528 1.203-.092-.197-2.528ZM36.714 5.264s-.44 1.21 1.224 1.22c1.665.008.967 1.528 2.276 1.608 1.309.08 1.537-.447 1.48-1.414-.056-.967.08-2.813-1.346-3.149-1.427-.335-3.86-.671-3.634 1.735Z" fill="#FFD200"/>
    <path d="M41.66 15.915c-.13-2.198 2.208-3.726 4.25-2.851 2.896 1.24 7.653 3.58 8.487 8.521 1.315 7.8-2.491 10.697-6.818 14.055l-.967-1.958s5.274-5.632 2.264-10.808c-2.316-3.96-7.032-3.94-7.215-6.96Z" fill="#1277F0"/>
    <path opacity=".2" d="M41.66 15.915c-.13-2.198 2.208-3.726 4.25-2.851 2.896 1.24 7.653 3.58 8.487 8.521 1.315 7.8-2.491 10.697-6.818 14.055l-.967-1.958s5.274-5.632 2.264-10.808c-2.316-3.96-7.032-3.94-7.215-6.96Z" fill="#fff"/>
    <path d="m46.725 33.908-1.162.557 1.008 1.717 1.008-.544-.854-1.73Z" fill="#F4A28C"/>
    <path d="M20.262 32.988v17.186h-2.346l-2.153-15.138 4.499-2.048Z" fill="#24285B"/>
    <path d="m33.444 29.238.226 2.319s-1.812.803-2.878.192c-1.066-.61.294-3.229 2.651-2.51Z" fill="#D88B7C"/>
    <path d="M42.061 50.177s-.197.911-.983 1.083c-.785.173-.887.967-.147 1.072.74.105 2.46-1.047 2.46-1.047l-.205-1.119-1.125.011ZM47.016 50.177s-.199.911-.982 1.083c-.784.173-.89.967-.148 1.072.743.105 2.46-1.047 2.46-1.047l-.207-1.119-1.123.011Z" fill="#1277F0"/>
    <path d="M11.262 31.636 7.997 50.16l2.49.014 5.362-14.537 4.413-2.65-9-1.35Z" fill="#24285B"/>
    <path d="M29.966 29.706s.715-.81 1.496-.448c.782.362.182.385.86.76.68.377 1.67 2.104-2.202 1.67l-.154-1.982Z" fill="#F4A28C"/>
    <path d="M8.896 12.225c1.825 0 3.304-1.462 3.304-3.265 0-1.803-1.48-3.265-3.304-3.265-1.824 0-3.303 1.462-3.303 3.265 0 1.803 1.479 3.265 3.303 3.265Z" fill="#fff"/>
    <path d="m7.719 8.642.899 1.377 1.73-2.115" stroke="#A5A5A5" stroke-linecap="round" stroke-linejoin="round"/>
    <path opacity=".4" d="M12.521 2.056h-6.6v1.597h6.6V2.056Z" fill="#A5A5A5"/>
</svg>
