<svg width="26" height="10" viewBox="0 0 26 10" fill="none" xmlns="http://www.w3.org/2000/svg">
<path d="M4.51207 7.86364V7.40341C4.51207 7.06534 4.5831 6.75426 4.72514 6.47017C4.87003 6.18608 5.08026 5.95739 5.35582 5.78409C5.63139 5.6108 5.9652 5.52415 6.35724 5.52415C6.76065 5.52415 7.09872 5.6108 7.37145 5.78409C7.64418 5.95455 7.85014 6.18182 7.98935 6.46591C8.13139 6.75 8.20242 7.0625 8.20242 7.40341V7.86364C8.20242 8.2017 8.13139 8.51278 7.98935 8.79688C7.8473 9.08097 7.63849 9.30966 7.36293 9.48295C7.0902 9.65625 6.75497 9.7429 6.35724 9.7429C5.95952 9.7429 5.62287 9.65625 5.3473 9.48295C5.07173 9.30966 4.86293 9.08097 4.72088 8.79688C4.58168 8.51278 4.51207 8.2017 4.51207 7.86364ZM5.62429 7.40341V7.86364C5.62429 8.08807 5.67827 8.29403 5.78622 8.48153C5.89418 8.66903 6.08452 8.76278 6.35724 8.76278C6.63281 8.76278 6.82173 8.67045 6.92401 8.4858C7.02912 8.2983 7.08168 8.09091 7.08168 7.86364V7.40341C7.08168 7.17614 7.03196 6.96875 6.93253 6.78125C6.8331 6.59091 6.64134 6.49574 6.35724 6.49574C6.0902 6.49574 5.90128 6.59091 5.79048 6.78125C5.67969 6.96875 5.62429 7.17614 5.62429 7.40341ZM0.0759943 2.86932V2.40909C0.0759943 2.06818 0.148438 1.75568 0.293324 1.47159C0.43821 1.1875 0.648438 0.960227 0.924006 0.789772C1.19957 0.616477 1.53338 0.529829 1.92543 0.529829C2.32599 0.529829 2.66264 0.616477 2.93537 0.789772C3.21094 0.960227 3.41832 1.1875 3.55753 1.47159C3.69673 1.75568 3.76634 2.06818 3.76634 2.40909V2.86932C3.76634 3.21023 3.69531 3.52273 3.55327 3.80682C3.41406 4.08807 3.20668 4.31392 2.93111 4.48438C2.65554 4.65483 2.32031 4.74006 1.92543 4.74006C1.52486 4.74006 1.18679 4.65483 0.911222 4.48438C0.638494 4.31392 0.431108 4.08665 0.289062 3.80256C0.147017 3.51847 0.0759943 3.20739 0.0759943 2.86932ZM1.19673 2.40909V2.86932C1.19673 3.09659 1.24929 3.30398 1.3544 3.49148C1.46236 3.67614 1.6527 3.76847 1.92543 3.76847C2.19815 3.76847 2.38565 3.67614 2.48793 3.49148C2.59304 3.30398 2.6456 3.09659 2.6456 2.86932V2.40909C2.6456 2.18182 2.59588 1.97443 2.49645 1.78693C2.39702 1.59659 2.20668 1.50142 1.92543 1.50142C1.65554 1.50142 1.46662 1.59659 1.35866 1.78693C1.25071 1.97727 1.19673 2.18466 1.19673 2.40909ZM0.56179 9.5L6.56179 0.772727H7.62713L1.62713 9.5H0.56179ZM10.0561 9.5V0.772727H13.3288C13.9993 0.772727 14.5618 0.889204 15.0163 1.12216C15.4737 1.35511 15.8189 1.68182 16.0518 2.10227C16.2876 2.51989 16.4055 3.0071 16.4055 3.56392C16.4055 4.12358 16.2862 4.60937 16.0476 5.02131C15.8118 5.4304 15.4638 5.74716 15.0036 5.97159C14.5433 6.19318 13.978 6.30398 13.3075 6.30398H10.9766V4.99148H13.0945C13.4865 4.99148 13.8075 4.9375 14.0575 4.82955C14.3075 4.71875 14.4922 4.55824 14.6115 4.34801C14.7337 4.13494 14.7947 3.87358 14.7947 3.56392C14.7947 3.25426 14.7337 2.99006 14.6115 2.77131C14.4893 2.54972 14.3033 2.3821 14.0533 2.26847C13.8033 2.15199 13.4808 2.09375 13.0859 2.09375H11.6371V9.5H10.0561ZM14.5646 5.54545L16.7251 9.5H14.9609L12.8388 5.54545H14.5646ZM17.8608 9.5V0.772727H19.4418V4.46733H23.4858V0.772727H25.071V9.5H23.4858V5.79261H19.4418V9.5H17.8608Z" fill="black"/>
</svg>
