<svg width="12" height="12" viewBox="0 0 12 12" fill="none" xmlns="http://www.w3.org/2000/svg">
<g clip-path="url(#clip0_489_45)">
<path d="M1.5 4H5C5.29667 4 5.58668 3.91203 5.83336 3.74721C6.08003 3.58238 6.27229 3.34812 6.38582 3.07403C6.49935 2.79994 6.52906 2.49834 6.47118 2.20737C6.4133 1.91639 6.27044 1.64912 6.06066 1.43934C5.85088 1.22956 5.58361 1.0867 5.29264 1.02882C5.00166 0.970945 4.70006 1.00065 4.42597 1.11418C4.15189 1.22771 3.91762 1.41997 3.7528 1.66665C3.58797 1.91332 3.5 2.20333 3.5 2.5M2 8H7.5C7.79667 8 8.08668 8.08797 8.33335 8.2528C8.58003 8.41762 8.77229 8.65189 8.88582 8.92598C8.99935 9.20006 9.02906 9.50167 8.97118 9.79264C8.9133 10.0836 8.77044 10.3509 8.56066 10.5607C8.35088 10.7704 8.08361 10.9133 7.79264 10.9712C7.50166 11.0291 7.20006 10.9994 6.92597 10.8858C6.65189 10.7723 6.41762 10.58 6.2528 10.3334C6.08797 10.0867 6 9.79667 6 9.5M1 6H9.5C9.79667 6 10.0867 5.91203 10.3334 5.7472C10.58 5.58238 10.7723 5.34811 10.8858 5.07403C10.9994 4.79994 11.0291 4.49834 10.9712 4.20737C10.9133 3.91639 10.7704 3.64912 10.5607 3.43934C10.3509 3.22956 10.0836 3.0867 9.79264 3.02882C9.50166 2.97095 9.20006 3.00065 8.92597 3.11418C8.65189 3.22771 8.41762 3.41997 8.2528 3.66665C8.08797 3.91332 8 4.20333 8 4.5" stroke="#2FB8F7" stroke-linecap="round" stroke-linejoin="round"/>
</g>
<defs>
<clipPath id="clip0_489_45">
<rect width="12" height="12" fill="white"/>
</clipPath>
</defs>
</svg>
