<svg width="18" height="18" viewBox="0 0 18 18" fill="none" xmlns="http://www.w3.org/2000/svg">
<g clip-path="url(#clip0_284_4877)">
<path d="M17.0612 5.25237C17.3555 5.54665 17.5027 5.9145 17.5027 6.35592C17.5027 6.77631 17.3555 7.12314 17.0612 7.3964L9.17878 15.4365C8.8845 15.7308 8.53767 15.8779 8.13829 15.8779C7.69688 15.8779 7.32903 15.7203 7.03475 15.405L1.80079 10.0764C1.50651 9.78216 1.35938 9.42482 1.35938 9.00442C1.35938 8.58402 1.50651 8.21618 1.80079 7.90088L3.88176 5.81991C4.15502 5.52563 4.50711 5.37849 4.93801 5.37849C5.36892 5.37849 5.721 5.51512 5.99426 5.78838L8.10676 7.93241L12.8678 3.13987C13.141 2.84559 13.4931 2.70371 13.924 2.71422C14.3549 2.72473 14.707 2.87712 14.9803 3.1714L17.0612 5.25237ZM8.13829 14.3645L16.0208 6.32438L13.9398 4.21188L8.64277 9.54043C8.49563 9.68757 8.31696 9.76114 8.10676 9.76114C7.89656 9.76114 7.7179 9.68757 7.57076 9.54043L4.95378 6.86039L2.87281 8.97289L5.48979 11.6845L8.13829 14.3645Z" fill="white"/>
</g>
<defs>
<clipPath id="clip0_284_4877">
<rect width="16.9" height="16.9" fill="white" transform="matrix(1 0 0 -1 0.980469 17.5801)"/>
</clipPath>
</defs>
</svg>
