<svg width="100" height="100" viewBox="0 0 100 100" fill="none" xmlns="http://www.w3.org/2000/svg">
<path d="M50 62.5C56.9036 62.5 62.5 56.9036 62.5 50C62.5 43.0964 56.9036 37.5 50 37.5C43.0964 37.5 37.5 43.0964 37.5 50C37.5 56.9036 43.0964 62.5 50 62.5Z" fill="#6E6E6E"/>
<path d="M83.333 16.6673H70.1247L64.958 11.0423C64.1815 10.1898 63.2358 9.5086 62.1811 9.04226C61.1265 8.57592 59.9862 8.33469 58.833 8.33398H41.1663C38.833 8.33398 36.583 9.33398 34.9997 11.0423L29.8747 16.6673H16.6663C12.083 16.6673 8.33301 20.4173 8.33301 25.0007V75.0006C8.33301 79.584 12.083 83.334 16.6663 83.334H83.333C87.9163 83.334 91.6664 79.584 91.6664 75.0006V25.0007C91.6664 20.4173 87.9163 16.6673 83.333 16.6673ZM49.9997 70.834C38.4997 70.834 29.1663 61.5006 29.1663 50.0006C29.1663 38.5007 38.4997 29.1673 49.9997 29.1673C61.4997 29.1673 70.833 38.5007 70.833 50.0006C70.833 61.5006 61.4997 70.834 49.9997 70.834Z" fill="#6E6E6E"/>
</svg>
