<svg width="15" height="14" viewBox="0 0 15 14" fill="none" xmlns="http://www.w3.org/2000/svg">
<path d="M2.41493 3.04402H12.5849C12.6879 3.04434 12.7888 3.07274 12.8769 3.12616C12.9649 3.17957 13.0367 3.25599 13.0845 3.34717C13.1323 3.43836 13.1544 3.54086 13.1483 3.64364C13.1422 3.74643 13.1082 3.84561 13.0499 3.9305L7.96493 11.2755C7.75418 11.58 7.24681 11.58 7.0355 11.2755L1.9505 3.9305C1.89164 3.84579 1.85713 3.74656 1.8507 3.6436C1.84428 3.54064 1.8662 3.43789 1.91407 3.34652C1.96194 3.25514 2.03394 3.17863 2.12224 3.1253C2.21055 3.07197 2.31178 3.04386 2.41493 3.04402Z" fill="#222222"/>
</svg>
