<svg width="24" height="24" viewBox="0 0 24 24" fill="none" xmlns="http://www.w3.org/2000/svg">
<g clip-path="url(#clip0_144_109)">
<path fill-rule="evenodd" clip-rule="evenodd" d="M12 0C5.37259 0 0 5.37259 0 12C0 18.6274 5.37259 24 12 24C18.6274 24 24 18.6274 24 12C24 5.37259 18.6274 0 12 0Z" fill="#BABEC2"/>
<path fill-rule="evenodd" clip-rule="evenodd" d="M7.92898 9.50853C7.92898 7.26016 9.75166 5.4375 12 5.4375C14.2484 5.4375 16.0711 7.26016 16.0711 9.50853C16.0711 11.7569 14.2484 13.5796 12 13.5796C9.75166 13.5796 7.92898 11.7569 7.92898 9.50853ZM18.205 18.2347C18.4166 18.5559 18.3494 18.9809 18.0545 19.2281C16.4166 20.6016 14.305 21.4286 12.0002 21.4286C9.69531 21.4286 7.58362 20.6016 5.94565 19.2281C5.6509 18.9809 5.58373 18.5559 5.79516 18.2345C6.20619 17.6098 6.71214 17.0462 7.29961 16.5661C8.62618 15.4818 10.2868 14.8895 12.0001 14.8895C13.7134 14.8895 15.374 15.4818 16.7006 16.5661C17.2881 17.0463 17.7941 17.6098 18.205 18.2347Z" fill="#90979E"/>
</g>
<defs>
<clipPath id="clip0_144_109">
<rect width="24" height="24" fill="white"/>
</clipPath>
</defs>
</svg>
