<svg width="122" height="35" viewBox="0 0 122 35" fill="none" xmlns="http://www.w3.org/2000/svg">
<path d="M17.8477 25.2778L11.3376 34.6013H0.00585938L6.51599 25.2778H17.8477Z" fill="#1373F7"/>
<path d="M17.8484 25.2773H6.51672L0 7.66406L9.33976 21.1884H16.338L17.8484 25.2773Z" fill="#1764F6"/>
<path d="M15.0323 13.0172L13.911 14.6238L11.332 7.66406L15.0323 13.0172Z" fill="#04AEF8"/>
<path d="M13.9107 14.6238L9.33976 21.1884L0 7.66406H11.3317L13.9107 14.6238Z" fill="#0C91F8"/>
<path d="M35.4267 0L20.6783 21.1886L15.0322 13.0173L24.095 0H35.4267Z" fill="#00BDF9"/>
<path d="M20.6775 21.1878H16.3374L13.9102 14.6232L15.0315 13.0166L20.6775 21.1878Z" fill="#089FF8"/>
<path d="M16.3381 21.1887H9.33984L13.9108 14.624L16.3381 21.1887Z" fill="#0F82F7"/>
<path d="M54.7461 7.65869L49.786 21.0974L48.0644 25.746L47.4576 27.3921H44.0278L46.3495 21.104L41.3828 7.65869H44.8193L48.071 16.4554L51.3162 7.65869H54.7461Z" fill="#2B2B2B"/>
<path d="M65.477 7.65186V15.1449C65.5306 15.9947 65.2675 16.8343 64.7383 17.5021C64.4646 17.7858 64.1321 18.0064 63.7642 18.1486C63.3962 18.2908 63.0016 18.351 62.6078 18.3252C62.067 18.3387 61.5323 18.2092 61.0578 17.9498C60.6258 17.6975 60.2826 17.318 60.075 16.8634C59.8378 16.3224 59.7251 15.7351 59.7452 15.1449V7.65186H56.5528V15.2898C56.5327 16.3879 56.7986 17.4724 57.3245 18.4371C57.823 19.3428 58.5656 20.0909 59.4682 20.5968C60.4292 21.1242 61.5114 21.392 62.6078 21.3737C63.7094 21.3964 64.7981 21.1332 65.7673 20.6099C66.6621 20.1072 67.3997 19.3664 67.8977 18.47C68.4235 17.4865 68.687 16.3845 68.6628 15.27V7.65186H65.477Z" fill="#2B2B2B"/>
<path d="M108.377 8.14511C107.415 7.61458 106.33 7.34659 105.231 7.36815C104.127 7.34462 103.036 7.60782 102.065 8.13194C101.166 8.63491 100.426 9.37832 99.9278 10.2785C99.402 11.262 99.1385 12.3639 99.1627 13.4785V21.1361H102.355V13.6233C102.3 12.7714 102.564 11.9294 103.094 11.2595C103.369 10.9764 103.703 10.7562 104.072 10.6141C104.441 10.472 104.836 10.4114 105.231 10.4365C105.772 10.4229 106.306 10.5524 106.781 10.8118C106.842 10.8429 106.899 10.8804 106.952 10.9237L108.727 8.36239C108.615 8.28338 108.496 8.21754 108.377 8.14511Z" fill="#2B2B2B"/>
<path d="M80.8916 17.1194L80.7993 17.0338C80.4178 17.4916 79.9314 17.8507 79.3812 18.0807C78.8075 18.3227 78.19 18.4438 77.5673 18.4362C77.1334 18.4396 76.7017 18.3751 76.2877 18.2453C76.0221 18.1647 75.7673 18.0519 75.5292 17.9095C74.9418 17.5664 74.4638 17.0641 74.1506 16.4609C73.8135 15.8153 73.6456 15.095 73.6625 14.3671C73.6433 13.6348 73.8113 12.9096 74.1506 12.2601C74.4731 11.6739 74.9498 11.1867 75.5292 10.851C75.7712 10.707 76.0305 10.5942 76.3009 10.5152C76.7106 10.3864 77.1378 10.322 77.5673 10.3243C78.1897 10.3195 78.8067 10.4405 79.3812 10.6798C79.9314 10.9098 80.4178 11.269 80.7993 11.7267L82.468 9.32345C81.9027 8.74761 81.2307 8.28694 80.4893 7.96706C79.5517 7.56453 78.5418 7.35693 77.5211 7.35693C76.5005 7.35693 75.4906 7.56453 74.553 7.96706C74.35 8.05522 74.1518 8.15413 73.9594 8.26336C72.9025 8.86188 72.0239 9.72989 71.4133 10.7786C70.7914 11.8667 70.4726 13.1012 70.4899 14.3539C70.475 15.6042 70.7938 16.836 71.4133 17.9227C72.0215 18.9766 72.9004 19.8494 73.9594 20.4511C74.144 20.5564 74.3419 20.6552 74.5332 20.7408C75.4871 21.1772 76.5246 21.4018 77.5739 21.3992C78.5866 21.4097 79.5898 21.2032 80.5157 20.7935C81.2557 20.4652 81.927 20.0006 82.4944 19.4239L80.8916 17.1194Z" fill="#2B2B2B"/>
<path d="M96.7544 10.7982C96.126 9.73552 95.2266 8.85816 94.1479 8.25553C93.0692 7.65291 91.8497 7.34657 90.6137 7.36773C89.368 7.35384 88.1417 7.67694 87.0651 8.30271C86.0126 8.90692 85.1353 9.77362 84.5191 10.8179C83.8845 11.8874 83.5581 13.1109 83.5759 14.3538C83.5887 15.5926 83.9255 16.8065 84.5529 17.8754C85.1803 18.9443 86.0765 19.831 87.1528 20.4478C88.2292 21.0645 89.4482 21.3898 90.6892 21.3915C91.9303 21.3932 93.1502 21.0713 94.2282 20.4575C95.2835 19.8453 96.1609 18.9693 96.7742 17.9159C97.4059 16.8357 97.7319 15.6045 97.7174 14.3538C97.7277 13.103 97.3947 11.8733 96.7544 10.7982ZM94.0237 16.4608C93.7127 17.0633 93.237 17.5655 92.6518 17.9093C92.031 18.261 91.3274 18.4406 90.6137 18.4295C89.9198 18.4323 89.2374 18.2529 88.6349 17.9093C88.0493 17.564 87.5719 17.0623 87.2564 16.4608C86.9206 15.8123 86.7528 15.0902 86.7683 14.3604C86.7504 13.6366 86.9184 12.9203 87.2564 12.2797C87.5806 11.6931 88.0567 11.2041 88.6349 10.864C89.0817 10.5948 89.578 10.4178 90.0945 10.3433C90.6109 10.2688 91.1371 10.2984 91.642 10.4304C92.1468 10.5623 92.62 10.794 93.0336 11.1116C93.4472 11.4293 93.7929 11.8264 94.0501 12.2797C94.3924 12.9192 94.565 13.6354 94.5514 14.3604C94.5545 15.0936 94.373 15.8158 94.0237 16.4608Z" fill="#2B2B2B"/>
<path d="M121.193 10.6136C121.002 10.2697 120.781 9.94361 120.533 9.63907C119.939 8.90409 119.183 8.31606 118.323 7.92088C117.464 7.5257 116.525 7.33404 115.579 7.36087C114.622 7.34248 113.671 7.52647 112.789 7.90079C112.537 8.00421 112.292 8.12522 112.057 8.26293C111.011 8.86457 110.144 9.73253 109.544 10.7782C108.916 11.8639 108.594 13.0997 108.614 14.3535C108.594 15.6133 108.92 16.8545 109.557 17.942C110.17 19.0046 111.059 19.8826 112.13 20.4836C112.341 20.6021 112.565 20.7074 112.789 20.8062C113.735 21.204 114.752 21.4035 115.777 21.3922C116.789 21.3929 117.791 21.1937 118.726 20.8062C119.497 20.4862 120.196 20.0161 120.784 19.4235L119.148 17.0728C118.737 17.5406 118.222 17.9059 117.644 18.1395C117.032 18.3869 116.378 18.51 115.718 18.5017C115.297 18.5043 114.878 18.4512 114.471 18.3436C114.161 18.2607 113.863 18.1414 113.581 17.9881C112.963 17.6492 112.458 17.1363 112.13 16.5132C111.969 16.2016 111.845 15.8724 111.76 15.5321H121.826C121.883 15.2759 121.925 15.0164 121.951 14.7551C121.981 14.537 121.997 14.317 121.997 14.0967C122.031 12.8861 121.754 11.6871 121.193 10.6136ZM111.807 13.0037C111.874 12.6965 111.983 12.3998 112.13 12.1214C112.425 11.5314 112.882 11.038 113.449 10.6992C113.753 10.5226 114.082 10.3938 114.425 10.3173C114.778 10.2363 115.139 10.1965 115.5 10.1987C116.162 10.1778 116.817 10.3323 117.4 10.6465C117.921 10.9559 118.337 11.4147 118.594 11.9634C118.64 12.0555 118.679 12.1477 118.719 12.2399C118.817 12.4969 118.894 12.7611 118.95 13.03L111.807 13.0037Z" fill="#2B2B2B"/>
</svg>
